<?xml version="1.0" encoding="UTF-8" standalone="no"?>
<svg
   xmlns:dc="http://purl.org/dc/elements/1.1/"
   xmlns:cc="http://creativecommons.org/ns#"
   xmlns:rdf="http://www.w3.org/1999/02/22-rdf-syntax-ns#"
   xmlns:svg="http://www.w3.org/2000/svg"
   xmlns="http://www.w3.org/2000/svg"
   xmlns:xlink="http://www.w3.org/1999/xlink"
   xmlns:sodipodi="http://sodipodi.sourceforge.net/DTD/sodipodi-0.dtd"
   xmlns:inkscape="http://www.inkscape.org/namespaces/inkscape"
   id="svg2"
   viewBox="504.6 66.3 83.1 68.8"
   version="1.1"
   sodipodi:docname="2002_2.svg"
   inkscape:version="1.0.1 (3bc2e813f5, 2020-09-07)">
  <metadata
     id="metadata70">
    <rdf:RDF>
      <cc:Work
         rdf:about="">
        <dc:format>image/svg+xml</dc:format>
        <dc:type
           rdf:resource="http://purl.org/dc/dcmitype/StillImage" />
        <dc:title></dc:title>
      </cc:Work>
    </rdf:RDF>
  </metadata>
  <defs
     id="defs68" />
  <sodipodi:namedview
     pagecolor="#ffffff"
     bordercolor="#666666"
     borderopacity="1"
     objecttolerance="10"
     gridtolerance="10"
     guidetolerance="10"
     inkscape:pageopacity="0"
     inkscape:pageshadow="2"
     inkscape:window-width="2560"
     inkscape:window-height="1412"
     id="namedview66"
     showgrid="false"
     inkscape:zoom="12.194767"
     inkscape:cx="26.584564"
     inkscape:cy="34.400002"
     inkscape:window-x="0"
     inkscape:window-y="0"
     inkscape:window-maximized="1"
     inkscape:current-layer="svg2" />
  <style
     id="style2">.st0 {
    fill: url(#rect3405_1_)
  }

  .st1 {
    fill: url(#path4195_1_)
  }

  .st2 {
    fill: url(#rect3405-9_1_)
  }

  .st3 {
    fill: #fff
  }

  .st4 {
    fill: url(#rect3405-9-5_1_)
  }

  .st5 {
    fill: url(#path5068-1_1_)
  }

  .st6 {
    fill: url(#path4979-7_1_)
  }

  .st7 {
    fill: url(#path5118-2_1_)
  }

  .st8 {
    fill: url(#path5244_1_)
  }

  .st9 {
    fill: #fff;
    stroke: #fff
  }</style>
  <linearGradient
     id="rect3405_1_"
     gradientUnits="userSpaceOnUse"
     x1="468.01199"
     y1="65.377998"
     x2="487.67801"
     y2="55.896"
     gradientTransform="matrix(0.91479942,0,0,-0.94210115,119.57725,157.10697)"
     xlink:href="#rect3405-9_1_">
    <stop
       offset="0"
       stop-color="#cd090d"
       id="stop4" />
    <stop
       offset="1"
       stop-color="#f39272"
       id="stop6" />
  </linearGradient>
  <path
     id="rect3405"
     class="st0"
     d="m 512.66289,70.048552 c -1.66919,0 -3.07483,1.413152 -3.07483,3.297354 v 44.090344 c 0,1.78999 1.31778,3.29735 3.07483,3.29735 h 62.90216 c 1.6692,0 3.07483,-1.41316 3.07483,-3.29735 V 93.977922 c -3.51408,0 -6.32535,-3.014723 -6.32535,-6.783128 0,-3.768405 2.81127,-6.783129 6.32535,-6.783129 v -7.065759 c 0,-1.789992 -1.31778,-3.297354 -3.07483,-3.297354 z"
     style="fill:#cd0929;fill-opacity:1;stroke-width:0.909754" />
  <linearGradient
     id="path4195_1_"
     gradientUnits="userSpaceOnUse"
     x1="540.972"
     y1="144.663"
     x2="540.972"
     y2="141.689"
     gradientTransform="matrix(1 0 0 -1 3.19 212.758)">
    <stop
       offset="0"
       stop-color="#fff"
       id="stop10" />
    <stop
       offset=".3"
       stop-color="#fff"
       stop-opacity=".498"
       id="stop12" />
    <stop
       offset="1"
       stop-color="#fff"
       stop-opacity="0"
       id="stop14" />
  </linearGradient>
  <linearGradient
     id="rect3405-9_1_"
     gradientUnits="userSpaceOnUse"
     x1="423.666"
     y1="66.686"
     x2="472.845"
     y2="66.686"
     gradientTransform="matrix(1 0 0 -1 81.409 161.092)">
    <stop
       offset="0"
       stop-color="#8e0902"
       id="stop18" />
    <stop
       offset="1"
       stop-color="#e2080e"
       id="stop20" />
  </linearGradient>
  <path
     id="path4328"
     class="st3"
     d="m 519.00125,115.17127 c 0,0 -0.4631,-0.0914 -0.37048,-0.1827 0.0926,-0.45675 0.27786,-0.7308 0.27786,-0.9135 0,-0.1827 0.37048,0 0.37048,0 l 0.27786,-0.54809 c 0,0 -0.37048,-0.0914 -0.27786,-0.27405 0.0926,-0.3654 0.27786,-0.5481 0.37047,-0.63945 0.0926,-0.0914 0.27786,0.0913 0.27786,0.0913 0,0 0.18524,-0.1827 0.18524,-0.27405 0.27786,-0.3654 0.64834,-0.5481 0.74096,-0.82215 l 0.18524,-0.5481 c 0,0 -0.37048,-0.1827 -0.27786,-0.27405 0.18524,-0.27405 0.27786,-0.3654 0.37048,-0.63945 0.0926,-0.0913 0.27786,0.1827 0.27786,0.1827 l 0.27785,-0.3654 c 0,0 -0.27785,-0.1827 -0.18524,-0.27405 0.0926,-0.27405 0.37048,-0.45675 0.4631,-0.7308 0.0926,-0.0913 0.27786,0.1827 0.27786,0.1827 0,0 0.55572,-0.63945 0.83358,-0.7308 0.18523,0 0.55571,0.27405 0.55571,0.27405 l 0.64834,0.63945 0.64834,0.63945 h 0.37047 c 0.74096,0 2.59335,-0.5481 4.7236,-1.37025 1.20405,-0.45675 2.50072,-0.9135 2.8712,-1.00485 0,0 0.4631,-0.1827 0.74096,-0.1827 0.0926,0 0.37047,0.0914 0.37047,0.0914 l 0.37048,0.0913 -0.37048,-0.5481 c -0.18523,-0.3654 -0.64833,-1.09619 -0.92619,-1.73564 -0.37048,-0.63945 -0.55572,-1.27891 -0.83358,-1.82701 l -0.37047,0.0914 -0.64834,-1.55294 c -1.85239,-3.745346 -2.03763,-4.750194 -1.94501,-7.033941 0.0926,-0.5481 0.27786,-0.913499 0.55572,-1.278899 l -0.37048,-0.09135 c 0,0 -0.37048,0.09135 -0.37048,-0.09135 0,-0.822149 0.18524,-2.375097 0.18524,-2.375097 0.27786,-2.740497 0.64834,-5.480993 1.29667,-7.39934 l 0.27786,-0.822149 0.9262,-0.45675 0.92619,-0.456749 -0.4631,0.09135 c -0.27785,0 -1.38929,0.1827 -2.4081,0.1827 l -1.94501,0.182699 -1.85239,2.009698 -2.03763,1.826997 -0.18524,0.639449 c 0,0 -0.0926,0.45675 -0.18524,0.63945 -0.0926,0.182699 -0.46309,0.548099 -0.46309,0.548099 -0.27786,0.274049 -0.74096,0.639449 -1.01882,0.822149 l -0.55572,0.274049 h -0.37047 c -0.55572,0 -0.83358,-0.09135 -0.83358,-0.365399 0,-0.09135 0.27786,-0.45675 0.55572,-0.730799 0.27786,-0.3654 0.55571,-0.639449 0.4631,-0.639449 0,0 -0.27786,0.09135 -0.55572,0.274049 0,0 -0.37048,0.3654 -0.55572,0.3654 -0.18524,0 -0.27786,-0.27405 -0.27786,-0.548099 0,-0.1827 0.37048,-0.27405 0.55572,-0.3654 0.4631,-0.3654 0.64834,-0.639449 1.01881,-1.187548 0.18524,-0.27405 0.4631,-0.63945 0.74096,-0.730799 l 0.4631,-0.27405 1.20405,-1.918348 c 0.64834,-1.004848 1.38929,-2.283747 1.75977,-2.740496 0,0 0.27786,-0.639449 0.55572,-0.913499 0.18524,-0.09135 0.55571,-0.182699 0.55571,-0.182699 l 0.74096,-0.1827 c 0,-0.27405 -0.18524,-0.548099 0.0926,-0.548099 2.03763,-0.45675 2.68597,-0.7308 4.44574,-1.096199 1.48191,-0.27405 2.8712,-0.1827 2.8712,-0.1827 l 0.64834,0.09135 c 0.92619,0.1827 2.31548,0.548099 2.96382,0.730799 l 0.55572,0.1827 0.27785,-0.548099 c 0.37048,-0.730799 1.11144,-1.461598 1.85239,-1.826998 0.9262,-0.365399 1.75977,-0.548099 2.68597,-0.27405 l 0.55572,0.1827 c 1.01881,0.639449 1.57453,1.552948 2.03762,2.557797 0.0926,1.096198 0.27786,1.918347 -0.37047,2.466446 -0.18524,0.09135 -0.37048,0.09135 -0.74096,0.27405 -0.4631,0.1827 -0.74095,0.730799 -1.20405,1.370248 0,0 -0.18524,0.27405 -0.37048,0.3654 -0.18524,0.09135 -0.27786,0.09135 -0.4631,0 -0.37048,0 -0.55571,0.09135 -0.55571,0.09135 l -0.4631,0.274049 c -0.27786,0.1827 -0.64834,0.27405 -0.83358,0.27405 h -0.27786 c -0.18523,-0.09135 -0.37047,-0.456749 -0.37047,-0.456749 l -0.27786,-0.45675 -0.0926,0.27405 c -0.83358,2.283747 -1.01882,4.932893 -1.85239,7.21664 l 1.11143,0.09135 c 0.55572,0.09135 2.03763,0.27405 3.24168,0.45675 0,0 1.57454,0.182699 2.22287,0.365399 0.18524,0 0.27786,0.456749 0.27786,0.456749 l 1.38929,0.27405 c 0.74096,0.1827 1.94501,0.456749 2.68597,0.730799 l 1.29667,0.456749 c 0,0 0.9262,-0.182699 1.38929,-0.182699 0.55572,0 1.57453,0.365399 1.57453,0.365399 l 0.0926,-0.1827 1.29668,0.5481 c 0.64833,0.274049 2.03762,0.913499 3.3343,1.461598 2.59334,1.096198 4.44573,1.735648 5.46455,2.009697 l 0.74095,0.1827 2.03763,-0.1827 c 1.11144,-0.09135 2.31549,-0.274049 2.68597,-0.365399 0.92619,-0.1827 1.20405,-0.1827 1.57453,0.182699 0.18524,0.1827 0.4631,0.45675 0.37048,0.5481 -0.0926,0.09135 -0.27786,0.274049 -0.4631,0.274049 0,0 0.18524,0.1827 0.0926,0.27405 -0.18524,0.1827 -0.37048,0.1827 -0.55572,0.27405 -0.0926,0 -0.18524,-0.1827 -0.18524,-0.1827 l -0.37048,0.274049 c 0.0926,0.09135 0.18524,0.1827 0.0926,0.27405 -0.18524,0.1827 -0.37047,0.27405 -0.55571,0.3654 -0.0926,0.09135 -0.0926,-0.09135 -0.18524,-0.1827 l -2.31549,1.735647 c 0,0 0.27786,0.1827 0.18524,0.3654 -0.27786,0.27405 -0.27786,0.27405 -0.4631,0.3654 -0.0926,0 -0.18524,-0.1827 -0.27786,-0.27405 l -0.37047,0.27405 c 0,0 0.27785,0.27405 0.18523,0.3654 -0.0926,0.0914 -0.27785,0.1827 -0.55571,0.3654 -0.0926,0.0913 -0.37048,-0.27405 -0.37048,-0.27405 0,0 -0.74096,0.45675 -1.01881,0.3654 -0.18524,-0.0913 -0.18524,-0.5481 -0.4631,-1.00485 0,0 -0.18524,-0.5481 -0.4631,-0.7308 -0.18524,-0.1827 -0.55572,-0.1827 -0.55572,-0.1827 -1.20405,-0.182699 -3.24168,-0.639448 -4.44573,-0.730798 -4.07526,-0.27405 -4.90883,-0.456749 -6.39075,-1.187548 l -1.01881,-0.5481 -3.05644,-0.09135 -3.14907,-0.09135 -0.18523,0.365399 h -6.29813 v 0.27405 c 0,0.182699 0.18524,0.913499 0.37048,1.918347 0,0 0.37048,1.6443 0.18524,1.827 -0.18524,0.1827 -0.4631,0.3654 -0.4631,0.3654 l 0.37048,2.10105 c 0.4631,3.01454 0.55572,3.10589 0.55572,4.20209 v 1.00485 l -0.18524,0.3654 c -0.0926,0.1827 -0.27786,0.63945 -0.55572,0.82215 l -0.37048,0.45675 -0.83357,0.3654 c -0.4631,0.1827 -0.74096,0.3654 -0.9262,0.3654 -0.0926,0 -0.4631,0.0914 -0.55572,0.1827 -0.0926,0 0,0.1827 -0.0926,0.1827 -0.18523,0 -1.66715,0.0913 -1.66715,0.0913 -0.92619,0.0914 -3.42692,0.1827 -5.7424,0.3654 l -4.07526,0.1827 -0.55572,0.3654 c -1.20405,0.73079 -2.22287,1.64429 -2.77858,2.37509 l -0.64834,0.63945 c -0.18524,0.0913 -0.4631,0.1827 -0.74096,0.1827 -0.46309,0 -0.74095,-0.1827 -0.74095,-0.45675 -0.0926,-0.27405 0.0926,-0.7308 0.0926,-0.7308 z"
     style="stroke-width:0.919825" />
  <linearGradient
     id="rect3405-9-5_1_"
     gradientUnits="userSpaceOnUse"
     x1="462.714"
     y1="40.159"
     x2="462.714"
     y2="44.876"
     gradientTransform="matrix(1 0 0 -1 81.416 161.084)">
    <stop
       offset="0"
       stop-color="#580000"
       stop-opacity=".863"
       id="stop25" />
    <stop
       offset=".547"
       stop-color="#740500"
       stop-opacity=".514"
       id="stop27" />
    <stop
       offset=".815"
       stop-color="#800700"
       stop-opacity=".255"
       id="stop29" />
    <stop
       offset="1"
       stop-color="#8c0a00"
       stop-opacity="0"
       id="stop31" />
  </linearGradient>
  <radialGradient
     id="path5068-1_1_"
     cx="1042.081"
     cy="-421.16"
     r="4.132"
     gradientTransform="matrix(-1.3579 1.3096 1.2542 1.3004 2526.115 -734.563)"
     gradientUnits="userSpaceOnUse">
    <stop
       offset="0"
       stop-color="#fff"
       id="stop35" />
    <stop
       offset=".5"
       stop-color="#464646"
       id="stop37" />
    <stop
       offset="1"
       id="stop39" />
  </radialGradient>
  <radialGradient
     id="path4979-7_1_"
     cx="480.41"
     cy="-141.442"
     r="4.264"
     gradientTransform="matrix(1,0,0,-1,98.002638,-58.297911)"
     gradientUnits="userSpaceOnUse">
    <stop
       offset="0"
       stop-color="#efefef"
       id="stop43" />
    <stop
       offset=".55"
       stop-color="#afafaf"
       id="stop45" />
    <stop
       offset="1"
       stop-color="#3f3f3f"
       id="stop47" />
  </radialGradient>
  <linearGradient
     id="path5118-2_1_"
     gradientUnits="userSpaceOnUse"
     x1="481.724"
     y1="-139.988"
     x2="481.518"
     y2="-142.216"
     gradientTransform="matrix(1 0 0 -1 102.9 -58.842)">
    <stop
       offset="0"
       stop-color="#fff"
       stop-opacity=".766"
       id="stop51" />
    <stop
       offset="1"
       stop-color="#aaa"
       stop-opacity=".475"
       id="stop53" />
  </linearGradient>
  <radialGradient
     id="path5244_1_"
     cx="330.698"
     cy="-199.877"
     r="2.247"
     gradientTransform="matrix(.8264 0 0 -.8264 309.512 -82.646)"
     gradientUnits="userSpaceOnUse">
    <stop
       offset="0"
       stop-color="#fff"
       id="stop57" />
    <stop
       offset="1"
       stop-color="#fff"
       stop-opacity="0"
       id="stop59" />
  </radialGradient>
  <ellipse
     style="fill:#000929;fill-opacity:1;stroke-width:0.953963;stroke-opacity:0;paint-order:stroke fill markers"
     id="path1047"
     cx="579.09564"
     cy="87.347221"
     rx="4.3445249"
     ry="4.315536" />
  <text
     xml:space="preserve"
     style="font-style:normal;font-weight:normal;font-size:10.7303px;line-height:1.05;font-family:sans-serif;fill:#000000;fill-opacity:1;stroke:none;stroke-width:0.804778"
     x="479.54794"
     y="139.55801"
     id="text1061"
     transform="scale(1.0601655,0.94324899)"><tspan
       sodipodi:role="line"
       id="tspan1059"
       x="479.54794"
       y="139.55801"
       style="stroke-width:0.804778">BUNDESLIGA</tspan></text>
</svg>
