<?xml version="1.0" encoding="UTF-8" standalone="no"?>
<svg
   xmlns:dc="http://purl.org/dc/elements/1.1/"
   xmlns:cc="http://creativecommons.org/ns#"
   xmlns:rdf="http://www.w3.org/1999/02/22-rdf-syntax-ns#"
   xmlns:svg="http://www.w3.org/2000/svg"
   xmlns="http://www.w3.org/2000/svg"
   xmlns:sodipodi="http://sodipodi.sourceforge.net/DTD/sodipodi-0.dtd"
   xmlns:inkscape="http://www.inkscape.org/namespaces/inkscape"
   width="2500"
   height="1329"
   viewBox="0 0 270.95 144.08"
   version="1.1"
   id="svg18"
   sodipodi:docname="2003.svg"
   inkscape:version="1.0.1 (3bc2e813f5, 2020-09-07)">
  <metadata
     id="metadata24">
    <rdf:RDF>
      <cc:Work
         rdf:about="">
        <dc:format>image/svg+xml</dc:format>
        <dc:type
           rdf:resource="http://purl.org/dc/dcmitype/StillImage" />
      </cc:Work>
    </rdf:RDF>
  </metadata>
  <defs
     id="defs22" />
  <sodipodi:namedview
     pagecolor="#ffffff"
     bordercolor="#666666"
     borderopacity="1"
     objecttolerance="10"
     gridtolerance="10"
     guidetolerance="10"
     inkscape:pageopacity="0"
     inkscape:pageshadow="2"
     inkscape:window-width="2560"
     inkscape:window-height="1412"
     id="namedview20"
     showgrid="false"
     inkscape:zoom="0.524"
     inkscape:cx="1250"
     inkscape:cy="664.5"
     inkscape:window-x="0"
     inkscape:window-y="0"
     inkscape:window-maximized="1"
     inkscape:current-layer="svg18" />
  <path
     d="M 171.04145,88.289521 H 44.304812 l 3.347616,9.514248 H 182.02893 a 54.105372,51.858276 0 0 1 -10.98748,-9.514248"
     fill="#00a452"
     id="path2"
     style="stroke-width:0.911138" />
  <path
     d="m 39.714752,8.8358195 2.36483,6.7008285 H 177.62128 A 54.002068,51.759262 0 0 1 188.2579,8.8358195 Z"
     fill="#00abeb"
     id="path4"
     style="stroke-width:0.911138" />
  <path
     d="m 11.389842,31.050601 2.223368,6.336885 H 161.651 a 54.367821,52.109825 0 0 1 2.93254,-6.336885 z"
     fill="#f79321"
     id="path6"
     style="stroke-width:0.911138" />
  <path
     d="M 159.5542,44.452258 H 24.231213 l 4.697086,13.36776 H 158.48766 a 53.920169,51.680765 0 0 1 1.06654,-13.36776"
     fill="#ea2228"
     id="path8"
     style="stroke-width:0.911138" />
  <path
     d="m 53.711083,21.642502 1.039557,2.956143 h 114.03673 a 57.359921,54.977658 0 0 1 2.42719,-2.956143 z"
     fill="#8cc642"
     id="path10"
     style="stroke-width:0.911138" />
  <path
     d="M 8.3121196,68.881024 12.850992,81.825969 H 166.19639 a 53.771262,51.538042 0 0 1 -5.8325,-12.944945 z"
     fill="#09509f"
     id="path12"
     style="stroke-width:0.911138" />
  <path
     d="m 230.393,49.542996 c -4.59564,-4.955152 -10.69059,-9.188662 -17.67433,-12.324101 -6.99212,3.071213 -12.30344,6.658904 -17.67527,12.324101 -0.19637,4.576937 3.06842,14.829776 6.75108,19.913379 7.16056,1.463799 14.47655,1.513752 21.8549,0 3.82039,-6.264633 5.87624,-11.993163 6.74362,-19.913379 m -17.86698,-28.904013 17.62687,-3.858864 -6.83111,-6.635711 a 47.744249,45.761343 0 0 0 -21.89026,0.07136 l -6.32576,6.56435 z m -34.12298,23.840927 1.61285,-17.262305 -8.69245,4.174638 a 47.780546,45.796131 0 0 0 -6.69988,19.977603 l 4.56214,7.796225 z m 13.10941,38.469999 -16.63199,-6.80341 1.45464,9.212747 a 47.712607,45.731014 0 0 0 17.7553,12.277713 l 9.14475,-1.74567 z m 42.22166,-0.05976 -11.89023,13.06359 9.59706,1.51197 a 47.708884,45.727446 0 0 0 17.66782,-12.38834 l 1.09074,-8.873781 z m 12.99214,-38.511032 9.28156,14.878837 4.47,-8.275238 A 47.816842,45.83092 0 0 0 253.6467,31.044361 l -8.47095,-3.736657 z"
     fill="#929495"
     id="path14"
     style="stroke-width:0.911138" />
  <path
     d="m 203.36731,116.04105 h -15.39978 c -4.14427,0 -5.54027,1.42187 -5.54027,5.63844 v 0.58694 c 0,4.21746 1.396,5.6429 5.54027,5.6429 h 10.67198 c 1.30294,0 1.63146,0.24441 1.63146,2.07751 v 2.78755 c 0,1.83755 -0.32852,2.08018 -1.63146,2.08018 h -11.57938 l -4.63287,-0.025 0.87948,2.52797 h 15.95539 c 3.55981,0 5.1466,-1.17033 5.1466,-3.78037 v -2.56098 c 0,-4.21834 -1.40159,-5.64022 -5.54028,-5.64022 H 188.1853 c -1.30107,0 -1.62867,-0.2453 -1.62867,-2.08018 v -2.65821 c 0,-1.83131 0.3276,-2.08018 1.62867,-2.08018 h 16.23366 l -0.87762,-2.51549 h -0.17403 z m 21.69296,4.57515 c 0,-1.81168 0.33318,-2.05699 1.65752,-2.05699 h 12.14616 c 1.32341,0 1.66125,0.24352 1.66125,2.05699 v 4.76337 h -15.46493 z m 19.70692,7.28243 v -6.20933 c 0,-4.22281 -1.43416,-5.65628 -5.68174,-5.65628 h -12.59009 c -4.24385,0 -5.67801,1.43169 -5.67801,5.33337 v 10.01288 c 0,4.54037 1.43416,5.96849 5.67801,5.96849 h 18.27369 l -0.89437,-2.52976 -3.81202,0.0107 h -13.34394 c -1.32434,0 -1.65752,-0.24887 -1.65752,-2.06591 v -4.86416 z M 76.407308,120.6162 c 0,-1.81168 0.33411,-2.05699 1.657521,-2.05699 h 12.146162 c 1.32806,0 1.66124,0.24352 1.66124,2.05699 v 4.76337 H 76.407308 Z m 19.707843,7.28243 v -6.20933 c 0,-4.22281 -1.43416,-5.65628 -5.67987,-5.65628 H 77.841469 c -4.24292,0 -5.677081,1.43169 -5.677081,5.33337 v 10.01288 c 0,4.54037 1.434161,5.96849 5.677081,5.96849 h 18.274612 l -0.89437,-2.52976 -3.81295,0.0107 H 78.064829 c -1.323411,0 -1.657521,-0.24887 -1.657521,-2.06591 v -4.86416 z M 68.303973,116.03302 h -7.841817 c -1.577484,0 -2.257803,0.70202 -2.621695,1.37638 -0.05398,-0.55751 -0.126571,-1.37638 -0.126571,-1.37638 h -4.290384 l 0.07818,0.29972 c 0.29316,1.18103 0.392742,2.28535 0.392742,4.37266 v 16.63701 h 4.122864 v -16.74137 c 0,-1.82061 0.335971,-2.06145 1.657521,-2.06145 h 9.866022 l -0.874829,-2.50835 z m 52.517647,16.74137 c 0,1.83755 -0.32852,2.08464 -1.63239,2.08464 h -11.37836 c -1.30573,0 -1.63053,-0.24709 -1.63053,-2.08464 v -12.14927 c 0,-1.83398 0.3248,-2.08018 1.63053,-2.08018 h 11.37836 c 1.30387,0 1.63239,0.2462 1.63239,2.08018 z m 4.50723,4.29773 c -0.28757,-1.17657 -0.38343,-2.28445 -0.38343,-4.38336 v -24.17187 h -4.08099 l 0.04,4.66435 v 3.97126 c -0.20009,-0.46028 -0.45789,-0.74394 -0.8255,-0.87685 -0.4793,-0.19892 -1.12797,-0.23549 -1.95348,-0.23549 h -10.55378 c -4.14427,0 -5.544,1.41652 -5.544,5.63308 l 0.0214,10.04054 c 0,4.21389 1.39786,5.63309 5.53934,5.63309 h 10.77156 c 1.00699,0 2.25408,-0.19357 2.78643,-1.23366 0.0707,0.50309 0.17589,1.23366 0.17589,1.23366 h 4.06796 z m 6.72595,-21.03107 h 4.14427 v 21.3076 h -4.14427 z m 40.41244,0 h 4.13961 v 21.3076 h -4.13961 z m 38.04109,0 h 4.13962 v 21.3076 h -4.13962 z m -45.88012,-0.008 -10.17035,18.55573 -9.08333,-18.55573 h -4.65986 l 10.50632,21.31563 h 5.1345 l 11.90047,-21.31563 z m -136.528207,4.58318 c 0,-1.81168 0.335041,-2.05699 1.656591,-2.05699 h 12.148953 c 1.325273,0 1.656591,0.24352 1.656591,2.05699 v 4.76334 H 28.100003 Z m 19.707847,7.28243 v -6.20933 c 0,-4.22281 -1.4323,-5.65628 -5.679873,-5.65628 h -12.59009 c -4.245712,0 -5.680803,1.43169 -5.680803,5.33337 v 10.01288 c 0,4.54037 1.436022,5.96849 5.680803,5.96849 H 47.80785 l -0.894373,-2.52976 -3.808298,0.0107 H 29.757525 c -1.32155,0 -1.656591,-0.24887 -1.656591,-2.06591 v -4.86416 z"
     fill="#09509f"
     id="path16"
     style="stroke-width:0.911138" />
</svg>
