<?xml version="1.0" encoding="UTF-8" standalone="no"?>
<svg
   xmlns:dc="http://purl.org/dc/elements/1.1/"
   xmlns:cc="http://creativecommons.org/ns#"
   xmlns:rdf="http://www.w3.org/1999/02/22-rdf-syntax-ns#"
   xmlns:svg="http://www.w3.org/2000/svg"
   xmlns="http://www.w3.org/2000/svg"
   xmlns:sodipodi="http://sodipodi.sourceforge.net/DTD/sodipodi-0.dtd"
   xmlns:inkscape="http://www.inkscape.org/namespaces/inkscape"
   width="800pt"
   height="1000pt"
   viewBox="0 0 800 1000"
   version="1.1"
   id="svg38"
   sodipodi:docname="2014.svg"
   inkscape:version="1.0.1 (3bc2e813f5, 2020-09-07)">
  <metadata
     id="metadata44">
    <rdf:RDF>
      <cc:Work
         rdf:about="">
        <dc:format>image/svg+xml</dc:format>
        <dc:type
           rdf:resource="http://purl.org/dc/dcmitype/StillImage" />
        <dc:title></dc:title>
      </cc:Work>
    </rdf:RDF>
  </metadata>
  <defs
     id="defs42" />
  <sodipodi:namedview
     pagecolor="#ffffff"
     bordercolor="#666666"
     borderopacity="1"
     objecttolerance="10"
     gridtolerance="10"
     guidetolerance="10"
     inkscape:pageopacity="0"
     inkscape:pageshadow="2"
     inkscape:window-width="2560"
     inkscape:window-height="1412"
     id="namedview40"
     showgrid="false"
     inkscape:zoom="0.53874144"
     inkscape:cx="553.33333"
     inkscape:cy="778.66667"
     inkscape:window-x="0"
     inkscape:window-y="0"
     inkscape:window-maximized="1"
     inkscape:current-layer="svg38"
     units="mm" />
  <path
     d="m 309.56129,312.69759 c 13.88607,-19.70519 35.12892,-34.60075 59.09436,-41.00039 -4.26181,2.80825 -7.82849,6.39173 -11.37035,9.95147 12.33029,-1.52673 25.14056,-0.1503 36.56883,4.65141 1.47301,10.40237 2.26745,20.89968 3.99699,31.2625 1.41509,-10.41029 2.49089,-20.86013 3.83977,-31.27832 11.15519,-4.61977 23.67581,-6.24934 35.70819,-4.61977 l 0.81098,0.61703 c 0.0249,-0.18195 0.0745,-0.53792 0.0993,-0.71195 -3.71565,-3.40154 -7.16647,-7.10368 -11.46138,-9.86446 23.93234,6.41546 45.17519,21.26356 59.0447,40.96083 -4.07148,-2.99018 -8.72223,-5.08648 -13.32333,-7.19069 5.29623,10.65552 7.97745,22.64792 6.69477,34.44254 -10.03801,4.46156 -20.24154,8.60669 -30.1637,13.30556 10.84073,-1.85898 21.5987,-4.14513 32.39804,-6.17023 8.44915,8.87564 13.72882,20.17982 16.12868,31.88743 2.37503,-4.14513 4.72523,-8.32981 6.20652,-12.85465 0.83582,23.21748 -7.10853,46.59316 -22.04556,64.90608 1.35716,-4.39826 2.07711,-8.93101 2.71432,-13.45585 -8.99532,8.11623 -20.12568,14.19154 -32.25735,16.75456 -7.64644,-7.80772 -14.99497,-15.89231 -22.82345,-23.5339 5.2714,9.38191 10.93175,18.55815 16.36039,27.85305 -6.28928,10.36283 -15.86387,18.70846 -26.84527,24.39615 4.70867,0.81479 9.45045,1.55046 14.25017,1.68494 -22.73242,7.74444 -48.23708,7.7207 -70.9695,-0.0238 4.83281,-0.0949 9.6077,-0.84642 14.35775,-1.66121 -10.9814,-5.68769 -20.55599,-14.03332 -26.84527,-24.40406 5.41209,-9.28699 11.10553,-18.43949 16.32728,-27.82141 -7.84503,7.64159 -15.1439,15.78947 -22.88964,23.52598 -12.06548,-2.65003 -23.20411,-8.6304 -32.1415,-16.77827 0.62065,4.56438 1.32405,9.12877 2.71431,13.55077 -14.9453,-18.35248 -22.93102,-41.73607 -22.10348,-64.9931 1.54749,4.54857 3.90596,8.7649 6.28927,12.94958 2.25089,-11.77882 7.67126,-23.0909 16.09558,-32.00609 10.80762,2.01719 21.56559,4.30334 32.40631,6.17022 -9.91389,-4.72259 -20.14223,-8.84399 -30.18024,-13.32136 -1.26613,-11.77091 1.39026,-23.75539 6.69477,-34.39508 -4.6342,2.08838 -9.29323,4.22423 -13.38127,7.21442 m 88.19053,9.57968 c -15.52457,10.7979 -31.07398,21.57207 -46.61511,32.34624 5.91688,17.48233 11.88342,34.94091 17.82513,52.41532 19.23194,-0.0396 38.46387,0.0633 57.69582,-0.0554 5.83413,-17.49024 11.92479,-34.90135 17.74237,-52.3995 -15.5825,-10.7267 -31.08225,-21.56416 -46.64821,-32.30669 z"
     fill="#ffffff"
     id="path2"
     style="stroke-width:0.80909" />
  <path
     d="m 368.53979,34.515116 h 2.284 c 1.27441,1.060026 2.47434,2.294066 2.59847,4.002746 8.39949,43.20743 16.86518,86.406958 25.23985,129.622298 0.73651,2.1754 -0.571,4.76216 -3.05361,5.05484 -17.05552,2.92691 -33.67244,8.35355 -48.85773,16.36694 -25.30605,13.23435 -46.78889,33.16894 -61.06389,57.15373 -0.90202,1.51883 -2.10194,3.26707 -4.17906,3.20377 -2.76397,-0.52209 -5.02314,-2.2545 -7.43954,-3.51228 -38.20734,-21.224 -76.42296,-42.42429 -114.64685,-63.62457 -1.6137,-0.84642 -3.23567,-2.36526 -2.76397,-4.30334 0.94338,-2.74496 2.83844,-5.06275 4.2949,-7.55458 29.7251,-47.18644 73.88243,-85.821568 125.47103,-110.288908 25.90187,-12.3721 53.66571,-21.04206 82.1164,-26.120646 z"
     fill="#951b80"
     id="path4"
     style="stroke-width:0.80909" />
  <path
     d="m 445.45927,67.177792 c 42.12987,-1.05211 84.45834,6.39964 123.48494,21.59581 30.03957,11.707608 58.13441,27.979608 82.86119,48.056588 1.38199,1.15495 2.90465,2.19915 4.07147,3.57558 1.06753,1.66912 0.4386,3.79706 -0.95993,5.0944 -30.10577,33.18476 -60.21153,66.36953 -90.30074,99.5622 -0.93512,0.95718 -1.99436,2.07257 -3.48393,2.03301 -1.89506,0.11866 -3.20257,-1.39226 -4.55145,-2.40481 -34.11931,-28.40678 -81.51231,-41.5304 -126.23236,-34.90927 -1.69645,0.15822 -3.65771,0.78315 -5.13072,-0.34806 -1.22475,-0.68031 -1.57232,-2.08838 -1.75437,-3.33034 -6.44651,-41.6095 -12.87647,-83.22692 -19.32297,-124.836418 -0.33102,-2.3969 -0.88546,-4.77797 -0.99304,-7.1986 -0.0662,-1.81152 1.57232,-3.31452 3.39289,-3.51228 12.87647,-1.95391 25.88533,-3.02975 38.91902,-3.37781 z"
     fill="#e40613"
     id="path6"
     style="stroke-width:0.80909" />
  <path
     d="m 105.53227,181.92825 c 1.55577,-0.89389 3.35153,-0.39552 4.81627,0.40345 40.72304,20.90758 81.50402,41.72815 122.2188,62.65948 2.59019,1.1312 2.56536,4.34289 1.0096,6.28888 -21.89661,38.07349 -25.11573,85.3865 -8.52363,125.84106 0.55446,1.70077 1.79576,3.55975 0.77788,5.3238 -0.96821,1.81153 -3.30186,2.15959 -5.07279,2.93482 -42.31192,15.51259 -84.58247,31.12011 -126.886113,46.64852 -1.7792,0.77524 -4.17079,0.64867 -5.28796,-1.06792 -1.39853,-2.57883 -2.25917,-5.39499 -3.36807,-8.1004 -22.525531,-58.71212 -24.296462,-124.38552 -5.27968,-184.1972 5.88378,-18.71637 13.79503,-36.83945 23.435823,-54.06863 0.58755,-0.96509 1.12545,-2.05674 2.15987,-2.66586 z"
     fill="#01509f"
     id="path8"
     style="stroke-width:0.80909" />
  <path
     d="m 645.92162,189.19805 c 1.58059,-0.92553 3.53358,-0.22941 4.75006,0.93345 35.68336,31.76086 63.00032,71.95438 79.21175,115.88958 10.79108,29.01591 16.5259,59.66929 17.48584,90.43344 v 15.70244 c -0.20688,2.74496 -0.15723,5.52947 -0.71996,8.2428 -0.71995,2.00137 -3.11153,2.48391 -5.06451,2.29405 -46.09377,-2.18331 -92.20408,-4.22423 -138.29784,-6.44709 -2.83845,0.087 -4.35284,-2.74496 -3.83149,-5.14978 2.66467,-43.22325 -15.56596,-87.11891 -48.51017,-116.82303 -1.30751,-1.26568 -2.9543,-2.42854 -3.4922,-4.20841 -0.31446,-1.66913 0.91029,-3.01392 1.99436,-4.15304 30.50298,-30.68503 60.98942,-61.3938 91.47584,-92.09465 1.62197,-1.5742 3.07016,-3.36989 4.99832,-4.61976 z"
     fill="#f28800"
     id="path10"
     style="stroke-width:0.80909" />
  <g
     fill="#1d1d1b"
     id="g30"
     transform="matrix(0.8275361,0,0,0.7910552,60.514306,34.515116)">
    <path
       d="m 389.65,284.84 c 39.91,-5.35 81.81,7.73 111.48,34.97 26.13,23.46 42.8,57.13 45.42,92.17 2.96,35.25 -8.29,71.41 -30.72,98.76 -22.51,27.91 -56.12,46.54 -91.76,50.62 -39.05,4.86 -79.86,-7.86 -109.13,-34.18 -26.47,-23.28 -43.51,-56.95 -46.4,-92.1 -2.79,-31.06 5.32,-62.96 22.64,-88.9 21.94,-33.39 58.79,-56.48 98.47,-61.34 m -88.7,66.82 c 4.94,-3.78 10.57,-6.48 16.17,-9.12 -6.41,13.45 -9.62,28.6 -8.09,43.48 12.13,5.66 24.49,10.87 36.47,16.84 -13.1,-2.36 -26.1,-5.25 -39.16,-7.8 -10.18,11.27 -16.73,25.57 -19.45,40.46 -2.88,-5.29 -5.73,-10.62 -7.6,-16.37 -1,29.4 8.65,58.96 26.71,82.16 -1.68,-5.59 -2.53,-11.36 -3.28,-17.13 10.8,10.3 24.26,17.86 38.84,21.21 9.36,-9.78 18.18,-20.08 27.66,-29.74 -6.31,11.86 -13.19,23.43 -19.73,35.17 7.6,13.11 19.17,23.66 32.44,30.85 -5.74,1.03 -11.51,1.98 -17.35,2.1 27.47,9.79 58.29,9.82 85.76,0.03 -5.8,-0.17 -11.53,-1.1 -17.22,-2.13 13.27,-7.19 24.84,-17.74 32.44,-30.84 -6.56,-11.75 -13.4,-23.35 -19.77,-35.21 9.46,9.66 18.34,19.88 27.58,29.75 14.66,-3.24 28.11,-10.92 38.98,-21.18 -0.77,5.72 -1.64,11.45 -3.28,17.01 18.05,-23.15 27.65,-52.7 26.64,-82.05 -1.79,5.72 -4.63,11.01 -7.5,16.25 -2.9,-14.8 -9.28,-29.09 -19.49,-40.31 -13.05,2.56 -26.05,5.45 -39.15,7.8 11.99,-5.94 24.32,-11.18 36.45,-16.82 1.55,-14.91 -1.69,-30.07 -8.09,-43.54 5.56,2.66 11.18,5.31 16.1,9.09 -16.76,-24.9 -42.43,-43.67 -71.35,-51.78 5.19,3.49 9.36,8.17 13.85,12.47 -0.03,0.22 -0.09,0.67 -0.12,0.9 l -0.98,-0.78 c -14.54,-2.06 -29.67,0 -43.15,5.84 -1.63,13.17 -2.93,26.38 -4.64,39.54 -2.09,-13.1 -3.05,-26.37 -4.83,-39.52 -13.81,-6.07 -29.29,-7.81 -44.19,-5.88 4.28,-4.5 8.59,-9.03 13.74,-12.58 -28.96,8.09 -54.63,26.92 -71.41,51.83 z"
       id="path12" />
    <path
       d="m 407.52,363.77 c 18.81,13.58 37.54,27.28 56.37,40.84 -7.03,22.12 -14.39,44.13 -21.44,66.24 -23.24,0.15 -46.48,0.02 -69.72,0.07 -7.18,-22.09 -14.39,-44.16 -21.54,-66.26 18.78,-13.62 37.57,-27.24 56.33,-40.89 z"
       id="path14" />
    <path
       d="m 449.39,900.56 c 7.46,-1.65 15.6,-0.22 21.89,4.18 8.12,5.47 12.77,15.6 11.53,25.33 -1.08,11.25 -9.79,21.23 -20.77,23.85 -9.56,2.58 -20.46,-0.51 -26.94,-8.06 -7.87,-8.78 -9.05,-22.69 -2.87,-32.71 3.72,-6.28 10.04,-10.96 17.16,-12.59 z"
       id="path16" />
    <path
       d="m 2.75,928.38 c 16.21,-0.02 32.42,-0.01 48.63,0 -0.01,48.14 0.01,96.28 0,144.43 19.6,0.01 39.2,-0.01 58.8,0.01 0,14.18 0.05,28.37 -0.02,42.55 -35.8,0.01 -71.59,0.01 -107.38,0 C 2.71,1053.04 2.77,990.71 2.75,928.38 Z"
       id="path18" />
    <path
       d="m 305.06,928.36 c 16.21,0.02 32.42,0.01 48.63,0.01 0.01,48.15 0,96.29 0.01,144.44 19.6,0.06 39.21,-0.12 58.82,0.09 -0.04,14.14 0,28.28 -0.02,42.42 -35.81,-0.01 -71.63,-0.01 -107.44,-0.01 0,-62.31 -0.01,-124.63 0,-186.95 z"
       id="path20" />
    <path
       d="m 149.99,975.99 c 12.01,-8.95 27.01,-13.78 41.99,-13.42 8.96,0.08 17.99,2.09 25.83,6.5 5.77,3.14 10.86,7.34 15.75,11.68 -0.01,-5.09 0,-10.17 0,-15.25 14.94,-0.01 29.88,-0.01 44.82,0 -0.01,49.94 0.01,99.87 -0.01,149.81 -15.16,0.01 -30.32,0 -45.48,0 -0.02,-4.82 -0.03,-9.64 0,-14.45 -12.09,11.84 -29.01,18.54 -45.93,18.14 -15.68,-0.13 -31.61,-5.08 -43.62,-15.37 -11.82,-9.9 -19.32,-24.19 -22.66,-39.09 -2.75,-12.59 -3.41,-25.74 -1.16,-38.45 3.53,-19.67 14.31,-38.19 30.47,-50.1 m 40.55,29.61 c -7.39,1.71 -14.22,5.92 -18.86,11.95 -9.03,11.62 -9.57,28.28 -3.55,41.39 4.1,9.13 12.47,16.34 22.34,18.42 15.07,3.33 32.21,-3.46 39.79,-17.16 8.8,-15.49 5.36,-37.49 -9.04,-48.46 -8.56,-6.66 -20.23,-8.56 -30.68,-6.14 z"
       id="path22" />
    <path
       d="m 531.68,970.67 c 13.93,-8.23 31.12,-9.97 46.74,-6.32 11.24,2.59 20.88,9.59 28.7,17.86 -0.01,-5.57 -0.01,-11.15 0.01,-16.72 14.43,0.01 28.87,-0.01 43.31,0.01 0.01,38.14 0,76.28 0,114.43 -0.17,10.31 0.59,20.7 -1.05,30.93 -2.29,15.22 -9.95,29.7 -21.87,39.55 -13.6,11.46 -31.45,16.7 -48.99,17.59 h -9.13 c -14.96,-0.77 -30.07,-4.41 -42.84,-12.48 -14.07,-8.57 -24.22,-23.36 -26.41,-39.77 16.93,0 33.86,-0.02 50.79,0.01 2.19,3.13 4.45,6.36 7.69,8.51 5.35,3.65 12.16,3.78 18.41,3.64 9.12,-0.45 19.13,-3.45 24.55,-11.32 4.74,-6.83 3.53,-15.55 3.43,-23.37 -9.11,7.65 -19.89,13.49 -31.56,16.02 -13,2.7 -26.86,0.8 -38.79,-4.95 -16.09,-7.73 -27.79,-22.86 -33.19,-39.66 -6.02,-18.67 -5.57,-39.35 1.08,-57.79 5.35,-14.81 15.4,-28.2 29.12,-36.17 m 31.79,32.03 c -9.85,2.71 -17.21,11.23 -20.08,20.83 -4.03,13.1 -2.44,28.75 6.85,39.3 9.02,10.27 24.84,11.84 36.94,6.59 7.37,-3.18 13.34,-9.27 16.68,-16.53 4.72,-9.99 4.38,-21.9 0.38,-32.06 -3.03,-7.71 -9.31,-14.08 -17.1,-16.97 -7.51,-2.76 -15.94,-3.28 -23.67,-1.16 z"
       id="path24" />
    <path
       d="m 702.44,975.41 c 15.62,-11.36 36.21,-15.58 55.01,-11.11 10.68,2.59 19.78,9.2 27.8,16.47 -0.01,-5.1 -0.01,-10.19 0,-15.28 14.91,0 29.83,0 44.75,0.01 v 149.82 c -15.17,-0.01 -30.34,0 -45.5,-0.01 0,-4.81 -0.02,-9.61 0.01,-14.41 -5.35,5.14 -11.53,9.42 -18.32,12.44 -17.58,8 -38.47,7.25 -56.07,-0.26 -16.16,-6.91 -28.54,-21.13 -34.5,-37.52 -5.86,-16.08 -7.33,-33.8 -4.23,-50.62 3.75,-19.57 14.77,-37.88 31.05,-49.53 m 39.12,30.35 c -6.4,1.6 -12.33,5.07 -16.73,10 -10.11,11.22 -11.32,28.38 -5.59,41.95 3.55,8.62 10.69,15.84 19.63,18.75 14.92,4.88 32.88,-0.83 41.64,-14.03 10.34,-15.29 7.56,-38.43 -6.95,-50.15 -8.79,-7.22 -21.11,-9.25 -32,-6.52 z"
       id="path26" />
    <path
       d="m 432.62,965.5 c 15.09,-0.01 30.17,-0.01 45.26,0 v 149.81 c -15.08,0 -30.17,0.01 -45.25,0 -0.02,-49.94 0,-99.87 -0.01,-149.81 z"
       id="path28" />
  </g>
  <path
     d="m 190.72712,415.25789 c 2.63156,-1.47135 5.53621,0.35598 6.23134,2.94273 17.84996,40.47038 55.27114,72.43692 99.31261,84.9356 2.65639,0.3797 4.7335,2.85571 3.60805,5.4029 -13.72055,42.19488 -27.51557,84.37395 -41.28577,126.5451 -0.4717,2.6184 -3.47565,3.93155 -5.94171,2.82407 -34.831,-10.14924 -67.70901,-26.36587 -96.57346,-47.58988 -41.8154,-30.5901 -75.132013,-71.71707 -95.563874,-118.10454 v -1.81943 c 0.835806,-1.32897 2.085389,-2.34943 3.616334,-2.88735 42.22089,-17.36366 84.37558,-34.89344 126.59648,-52.2492 z"
     fill="#0090d7"
     id="path32"
     style="stroke-width:0.80909" />
  <path
     d="m 558.12004,431.92543 c 1.02614,-0.18195 2.06884,-0.21359 3.12809,-0.10284 45.79584,3.46483 91.59997,6.82681 137.39581,10.25999 2.54054,-0.0949 4.60938,2.13585 4.08803,4.55648 -4.12112,57.24075 -26.75424,113.01805 -63.65407,158.22685 -17.65135,21.72238 -38.53836,41.03204 -61.8335,57.16957 -1.82886,1.55046 -4.77489,0.973 -6.00791,-0.96509 -26.30738,-34.22896 -52.5982,-68.47374 -78.88902,-102.71852 -1.47302,-2.12794 -3.63288,-3.9711 -4.27836,-6.50247 -0.38066,-2.3178 1.9116,-3.60722 3.55841,-4.77798 36.3702,-25.29003 60.2198,-66.17176 63.64579,-109.03114 0.14069,-2.23077 0.0745,-5.33962 2.84673,-6.11485 z"
     fill="#feed01"
     id="path34"
     style="stroke-width:0.80909" />
  <path
     d="m 444.03592,526.99445 c 2.06884,-0.96509 4.24526,0.46671 5.22175,2.19913 25.695,36.62586 51.48929,73.18842 77.16773,109.82219 2.19298,2.60257 -0.19033,5.67186 -2.86327,6.76352 -58.3744,37.59094 -130.61002,54.76475 -200.60302,48.00915 -17.83341,-1.69287 -35.51786,-4.84126 -52.7637,-9.48476 -2.3502,-0.42717 -3.67427,-2.97437 -2.80536,-5.05485 12.26409,-42.62996 24.61921,-85.23619 36.9164,-127.85033 0.43859,-2.6896 3.59977,-3.94737 6.06583,-2.80825 34.21862,9.35818 71.69773,7.00084 104.43506,-6.2968 10.3111,-4.04229 19.91879,-9.50057 29.22858,-15.299 z"
     fill="#00963f"
     id="path36"
     style="stroke-width:0.80909" />
</svg>
