<?xml version="1.0" encoding="UTF-8" standalone="no"?>
<svg
   xmlns:dc="http://purl.org/dc/elements/1.1/"
   xmlns:cc="http://creativecommons.org/ns#"
   xmlns:rdf="http://www.w3.org/1999/02/22-rdf-syntax-ns#"
   xmlns:svg="http://www.w3.org/2000/svg"
   xmlns="http://www.w3.org/2000/svg"
   xmlns:sodipodi="http://sodipodi.sourceforge.net/DTD/sodipodi-0.dtd"
   xmlns:inkscape="http://www.inkscape.org/namespaces/inkscape"
   height="4096"
   width="4096"
   version="1.1"
   viewBox="0 0 4096.0001 4096"
   id="svg62"
   sodipodi:docname="ligue-1-logo.svg"
   inkscape:version="0.92.2 (5c3e80d, 2017-08-06)"
   inkscape:export-filename="G:\Users\suitedoalex\sites\ligue-1-logo-0.png"
   inkscape:export-xdpi="96"
   inkscape:export-ydpi="96">
  <metadata
     id="metadata68">
    <rdf:RDF>
      <cc:Work
         rdf:about="">
        <dc:format>image/svg+xml</dc:format>
        <dc:type
           rdf:resource="http://purl.org/dc/dcmitype/StillImage" />
        <dc:title></dc:title>
      </cc:Work>
    </rdf:RDF>
  </metadata>
  <defs
     id="defs66" />
  <sodipodi:namedview
     pagecolor="#ffffff"
     bordercolor="#666666"
     borderopacity="1"
     objecttolerance="10"
     gridtolerance="10"
     guidetolerance="10"
     inkscape:pageopacity="0"
     inkscape:pageshadow="2"
     inkscape:window-width="1600"
     inkscape:window-height="837"
     id="namedview64"
     showgrid="false"
     inkscape:zoom="0.042069996"
     inkscape:cx="-3824.7926"
     inkscape:cy="198.32145"
     inkscape:window-x="-8"
     inkscape:window-y="-8"
     inkscape:window-maximized="1"
     inkscape:current-layer="svg62" />
  <rect
     width="2512.2954"
     height="3496.2629"
     id="rect2"
     x="-1334.2878"
     y="6089.4341"
     style="fill:#dae025;stroke-width:56.41044235"
     inkscape:export-filename="G:\Users\suitedoalex\sites\ligue-1-logo.png"
     inkscape:export-xdpi="82.538063"
     inkscape:export-ydpi="82.538063" />
  <path
     d="m -805.94201,7024.634 c 25.77963,-82.2433 66.11308,-149.7134 120.43634,-155.7494 104.0773,-11.6206 225.52896,163.139 246.7956,368.4734 19.63088,189.8775 -24.76413,397.75 -128.84142,409.4267 -63.51811,7.0513 -122.35425,-18.8972 -167.76459,-117.4466 a 333.23622,333.23622 0 0 0 159.30307,-8.8564 1303.9781,1303.9781 0 0 0 31.4206,-291.191 853.3975,853.3975 0 0 0 -136.11839,-251.1953 544.61461,544.61461 0 0 0 -125.23121,46.5386"
     id="path4"
     inkscape:connector-curvature="0"
     style="fill:#12233f;stroke-width:56.41044235"
     inkscape:export-filename="G:\Users\suitedoalex\sites\ligue-1-logo.png"
     inkscape:export-xdpi="82.538063"
     inkscape:export-ydpi="82.538063" />
  <path
     d="m -722.50587,7423.6938 c -41.06683,5.0232 -81.96434,-56.0717 -91.61054,-136.2314 -9.75902,-80.159 15.73848,-149.0358 56.63606,-153.9435 40.95398,-4.9078 82.02082,56.0156 91.61055,136.1745 9.5898,80.2159 -15.73847,149.0927 -56.63607,154.0004"
     id="path6"
     inkscape:connector-curvature="0"
     style="fill:#12233f;stroke-width:56.41044235"
     inkscape:export-filename="G:\Users\suitedoalex\sites\ligue-1-logo.png"
     inkscape:export-xdpi="82.538063"
     inkscape:export-ydpi="82.538063" />
  <path
     d="M 212.33984,7029.785 A 134.27659,134.27659 0 1 1 63.359737,6909.3512 135.42624,135.42624 0 0 1 212.33984,7029.785"
     id="path8"
     inkscape:connector-curvature="0"
     style="fill:#12233f;stroke-width:56.41044235"
     inkscape:export-filename="G:\Users\suitedoalex\sites\ligue-1-logo.png"
     inkscape:export-xdpi="82.538063"
     inkscape:export-ydpi="82.538063" />
  <path
     d="M 457.40364,7002.7916 A 404.00763,404.00763 0 0 0 20.843237,6634.995 403.94333,403.94333 0 0 0 -321.06039,7092.0893 410.99012,410.99012 0 0 0 26.822737,7459.4906 c 0,0 -3.3282,-39.3181 -8.123,-78.4108 -4.4,-38.8666 -9.7590003,-77.2256 -9.7590003,-77.2256 l -46.5949997,4.9078 a 851.52805,851.52805 0 0 1 -95.559397,-110.7345 734.33421,734.33421 0 0 1 -66.5078,-119.9285 c 0,0 19.8,-70.2873 45.8616,-135.1593 26.795,-65.8311 59.682297,-126.1899 59.682297,-126.1899 a 1250.9072,1250.9072 0 0 1 127.3747,-22.2821 c 69.215603,-7.8973 140.687703,-8.4619 140.687703,-8.4619 a 892.65356,892.65356 0 0 1 88.5643,104.7546 1059.9522,1059.9522 0 0 1 73.8413,126.0207 615.18802,615.18802 0 0 1 -35.1437,129.2925 859.48866,859.48866 0 0 1 -70.7387,132.0006 l -41.9694,6.882 c 0,0 5.6975,37.0054 8.4616,74.9698 3.1027,39.9356 4.9642,79.426 4.9642,79.426 a 410.95571,410.95571 0 0 0 255.5392,-436.5604"
     id="path10"
     inkscape:connector-curvature="0"
     style="fill:#12233f;stroke-width:56.41044235"
     inkscape:export-filename="G:\Users\suitedoalex\sites\ligue-1-logo.png"
     inkscape:export-xdpi="82.538063"
     inkscape:export-ydpi="82.538063" />
  <path
     d="m 379.06644,6661.8191 c -99.0003,-89.0722 -180.739,-158.852 -179.6672,-163.192 a 283.56796,283.56796 0 0 1 63.4617,28.4304 711.88116,711.88116 0 0 1 143.4517,99.1139 650.95789,650.95789 0 0 1 154.5083,191.7386 1900.2986,1900.2986 0 0 1 -181.7545,-156.0877"
     id="path12"
     inkscape:connector-curvature="0"
     style="fill:#12233f;stroke-width:56.41044235"
     inkscape:export-filename="G:\Users\suitedoalex\sites\ligue-1-logo.png"
     inkscape:export-xdpi="82.538063"
     inkscape:export-ydpi="82.538063" />
  <path
     d="m -330.66713,6483.4461 a 776.60594,776.60594 0 0 0 -140.06707,66.3387 775.53076,775.53076 0 0 0 264.11364,-98.0409 713.16788,713.16788 0 0 0 -124.04657,31.7022"
     id="path14"
     inkscape:connector-curvature="0"
     style="fill:#12233f;stroke-width:56.41044235"
     inkscape:export-filename="G:\Users\suitedoalex\sites\ligue-1-logo.png"
     inkscape:export-xdpi="82.538063"
     inkscape:export-ydpi="82.538063" />
  <path
     d="m 31.622837,6459.9203 a 291.05588,291.05588 0 0 0 -158.457097,-17.2613 145.48253,145.48253 0 0 1 48.513097,16.3022 l -192.472407,86.5334 -230.21111,60.3035 a 50.423037,50.423037 0 0 1 -28.88213,-15.9077 c -59.68221,45.5795 -97.70285,86.5334 -96.63108,96.3489 2.14368,19.631 159.13388,-16.6975 340.8319,-79.2568 181.92373,-62.4501 323.852327,-128.3342 317.308827,-147.0653"
     id="path16"
     inkscape:connector-curvature="0"
     style="fill:#12233f;stroke-width:56.41044235"
     inkscape:export-filename="G:\Users\suitedoalex\sites\ligue-1-logo.png"
     inkscape:export-xdpi="82.538063"
     inkscape:export-ydpi="82.538063" />
  <path
     d="m 549.14954,7269.3886 c 23.7489,-168.7767 57.9336,-306.7603 74.5747,-301.0627 a 608.26082,608.26082 0 0 1 29.841,320.3544 c -20.4205,141.4777 -87.3797,292.2632 -115.7541,290.5703 -17.4873,-1.0713 -12.2411,-141.2515 11.3384,-309.862"
     id="path18"
     inkscape:connector-curvature="0"
     style="fill:#12233f;stroke-width:56.41044235"
     inkscape:export-filename="G:\Users\suitedoalex\sites\ligue-1-logo.png"
     inkscape:export-xdpi="82.538063"
     inkscape:export-ydpi="82.538063" />
  <path
     d="m -208.20566,7905.0009 c -84.61566,-17.2613 -127.09271,-50.371 -138.76968,-96.3466 -26.06163,-101.4258 138.76968,-195.1236 342.8061767,-226.2621 186.4929033,-28.4873 346.8678033,31.3639 363.7346033,100.6929 13.0871,53.8721 -11.9591,97.2511 -83.3182,144.3542 a 354.30044,354.30044 0 0 0 3.2153,-116.6567 2071.4366,2071.4366 0 0 0 -269.247003,-43.3798 1061.6524,1061.6524 0 0 0 -254.523837,127.3751 301.13642,301.13642 0 0 0 36.10264,110.2253"
     id="path20"
     inkscape:connector-curvature="0"
     style="fill:#12233f;stroke-width:56.41044235"
     inkscape:export-filename="G:\Users\suitedoalex\sites\ligue-1-logo.png"
     inkscape:export-xdpi="82.538063"
     inkscape:export-ydpi="82.538063" />
  <path
     d="m 178.70794,7816.253 c 5.9795,36.0462 -53.872,75.7027 -133.692803,88.4547 -79.9336,12.805 -149.092797,-6.0922 -154.790197,-42.3084 -5.9796,-36.1024 54.041097,-75.815 133.805597,-88.5077 79.538603,-12.7489 148.979903,6.2052 154.677403,42.3645"
     id="path22"
     inkscape:connector-curvature="0"
     style="fill:#12233f;stroke-width:56.41044235"
     inkscape:export-filename="G:\Users\suitedoalex\sites\ligue-1-logo.png"
     inkscape:export-xdpi="82.538063"
     inkscape:export-ydpi="82.538063" />
  <path
     d="m 425.63274,8977.94 c 0,0 -236.6418,4.2309 -352.678003,-128.5026 -0.2823,-0.2807 -0.4515,-0.6784 -0.733,-0.846 l -0.4515,-0.6238 -0.5637,-0.2807 a 201.80159,201.80159 0 0 0 -94.826,-58.0469 10.328752,10.328752 0 0 0 -2.5948,-0.6238 c -1.4667,-0.4522 -2.9334,-0.7899 -4.2308,-1.0714 -2.3128,-0.6238 -4.3436,-1.1852 -6.5436,-1.6359 l -0.733,-0.1715 a 212.59798,212.59798 0 0 0 -29.8412,-3.7233 c -3.4973,-0.2261 -6.8819,-0.2261 -10.4923,-0.2261 -3.6102,0 -7.2768,0 -10.8872,0.2261 l -3.4973,0.3353 c -2.4821,0.1169 -4.5129,0.2807 -6.995,0.5068 -1.466697,0.2807 -2.764197,0.3977 -4.230697,0.5614 -2.2001,0.2262 -4.2308,0.6238 -6.0924,0.903 -1.8052,0.1715 -3.2718,0.5068 -4.5692,0.733 -2.0308,0.3352 -3.8923,0.6783 -5.8102,1.0713 a 43.292194,43.292194 0 0 1 -4.6822,1.0121 c -1.8615,0.5069 -3.6101,1.0153 -5.5282,1.4667 -1.4667,0.4523 -3.0461,0.8461 -4.6256,1.2414 l -5.1333,1.579 c -1.5795,0.4523 -3.1591,1.1283 -4.6257,1.4667 -1.5795,0.733 -3.3847,1.2944 -4.9641,1.9182 -1.5796,0.5614 -3.2155,1.2406 -4.5129,1.692 -1.7487,0.6784 -3.3282,1.4668 -5.0769,2.2005 -1.4668,0.6238 -2.7641,1.2406 -4.4001,1.9743 -1.5795,0.733 -3.3281,1.5229 -4.7948,2.2558 -1.2975,0.733 -2.9334,1.4106 -4.4001,2.2005 -1.5794,0.7899 -2.877,1.6359 -4.4563,2.5381 a 37.815868,37.815868 0 0 0 -4.4001,2.5388 c -1.4667,0.733 -2.7642,1.6921 -4.4,2.7073 -1.4102,0.7907 -2.7077,1.6929 -4.1743,2.482 a 35.003807,35.003807 0 0 1 -4.2308,2.9903 c -1.2975,1.0152 -2.5949,1.9743 -3.7795,2.8765 a 37.33243,37.33243 0 0 0 -4.2308,3.0465 c -1.4667,1.1283 -2.5949,2.0874 -3.9487,3.1587 a 50.56914,50.56914 0 0 0 -3.8925,3.3288 27.850399,27.850399 0 0 0 -3.6667,3.2149 c -1.4666,1.1844 -2.6513,2.3127 -3.8922,3.4972 -1.0719,1.1852 -2.2565,2.0873 -3.3847,3.2156 -1.2973,1.3537 -2.5948,2.7081 -3.7794,4.0618 -1.0154,0.959 -1.9181,1.8612 -2.7642,2.7072 l -0.1692,0.1716 c -3.0461,3.3287 -5.641,6.6567 -8.4615,10.0977 -28.65647,30.744 -130.8722,121.4522 -345.40115,121.4522 h -356.00691 v 13.3688 h 356.0062 c 0,0 236.19054,-4.174 352.56526,128.2772 a 12.312707,12.312707 0 0 0 1.0154,1.2414 c 0,0.2261 0.2823,0.3977 0.4515,0.5614 l 0.2822,0.2261 a 202.6703,202.6703 0 0 0 95.1081,58.0461 10.548753,10.548753 0 0 0 2.5948,0.733 c 1.2975,0.4522 2.9334,0.846 4.2308,1.1844 2.2001,0.4523 4.2309,1.016 6.4308,1.3544 l 0.6768,0.2262 a 191.55406,191.55406 0 0 0 30.010397,3.7225 c 3.4974,0.2261 6.9949,0.2807 10.4923,0.2807 3.6104,0 7.1078,-0.078 10.6052,-0.2807 a 22.172688,22.172688 0 0 0 3.4975,-0.2807 c 2.482,-0.1716 4.7949,-0.2807 7.1641,-0.5069 1.4667,-0.2261 2.9334,-0.3976 4.2308,-0.5614 2.2,-0.3353 4.3436,-0.4522 6.2616,-0.846 1.5794,-0.2807 3.0462,-0.5069 4.5128,-0.846 1.8616,-0.3353 3.7794,-0.5615 5.8103,-1.1283 1.4666,-0.1716 3.0462,-0.6784 4.4,-0.9022 2.0307,-0.5068 3.7795,-0.9591 5.6411,-1.4667 a 31.656976,31.656976 0 0 0 4.3436,-1.2414 c 1.9178,-0.5614 3.6666,-1.0152 5.6974,-1.5798 1.2974,-0.5614 2.9334,-0.9052 4.4,-1.6382 1.6922997,-0.5614 3.4974997,-1.0722 5.3589997,-1.8051 1.2974,-0.6238 2.764,-1.0722 4.2308,-1.6929 1.74869995,-0.7329 3.4974,-1.2967 5.0769,-2.0866 1.3539,-0.6783 2.7641,-1.2951 4.2308,-2.0281 1.5795,-0.846 3.3846003,-1.639 4.9641003,-2.372 a 45.405893,45.405893 0 0 0 4.0616,-2.0874 41.646701,41.646701 0 0 0 4.9641,-2.7073 c 1.2974,-0.7329 2.7641,-1.4667 3.9487,-2.2566 1.5796,-0.9029 3.2154,-1.9743 4.7949,-2.9334 1.1283,-0.7899 2.4821,-1.5797 3.7796,-2.4796 1.6358,-1.0152 3.1025,-2.0304 4.5128,-3.0457 1.2974,-0.7899 2.4821,-1.749 3.6666,-2.595 1.5795,-1.0721 3.0461,-2.2566 4.6257,-3.441 a 26.984499,26.984499 0 0 0 3.3282,-2.8204 c 1.3539,-1.1883 2.9334,-2.372 4.5692,-3.6102 a 20.852683,20.852683 0 0 1 3.2154,-2.7081 c 1.2974,-1.4667 2.7642,-2.7642 4.3436,-4.2309 1.0154,-0.9591 1.918,-1.8051 2.7642,-2.7642 1.5794,-1.5228 3.2153,-3.2149 4.682,-4.5685 a 16.365797,16.365797 0 0 1 2.1436,-2.2566 V 9122.9 c 2.9333,-3.2718 5.9795,-6.6567 8.6308,-10.0416 28.656503,-30.7993 130.872203,-121.5075 345.231903,-121.5075 h 356.0063 v -13.4257 z M -78.056063,9170.2433 A 184.71486,184.71486 0 1 1 106.46244,8985.4459 184.70979,184.70979 0 0 1 -78.056063,9170.2433"
     id="path24"
     inkscape:connector-curvature="0"
     style="fill:#12233f;stroke-width:56.41044235"
     inkscape:export-filename="G:\Users\suitedoalex\sites\ligue-1-logo.png"
     inkscape:export-xdpi="82.538063"
     inkscape:export-ydpi="82.538063" />
  <path
     d="m -199.05536,8869.3233 c 6.2616,-4.9646 52.7438,25.4971 99.169697,69.1029 a 118.27296,118.27296 0 0 0 28.9384,-24.7079 c 26.9642,-28.4312 26.4002,-50.0926 34.072,-48.1183 1.4666,0.2808 3.9487,1.1283 4.4,2.9335 a 104.24649,104.24649 0 0 1 -10.2103,59.0613 350.57115,350.57115 0 0 1 -22.2822,44.1696 230.1766,230.1766 0 0 1 39.6567,87.041 97.519552,97.519552 0 0 1 -5.4155,57.0317 6.1487382,6.1487382 0 0 1 -4.6821,3.2125 c -5.9795,0 -2.3128,-17.5436 -21.0975,-52.2361 a 209.87054,209.87054 0 0 0 -20.5333,-32.6052 c -20.8155,-26.3439 -20.7027,-24.1442 -20.7027,-24.1442 0,0 -18.897497,24.1442 -37.964297,44.3358 -6.4307,6.6005 -12.523,11.7336 -17.9385,16.5283 -6.9385,6.2052 -12.8051,10.7184 -18.3333,9.3079 a 4.7570926,4.7570926 0 0 1 -2.9334,-5.2462 190.95329,190.95329 0 0 0 32.7745,-95.1083 181.10572,181.10572 0 0 0 -47.3284,-93.0771 c -7.6718,-9.4232 -14.6667,-13.3126 -9.5898,-17.4905"
     id="path26"
     inkscape:connector-curvature="0"
     style="fill:#12233f;fill-rule:evenodd;stroke-width:56.41044235"
     inkscape:export-filename="G:\Users\suitedoalex\sites\ligue-1-logo.png"
     inkscape:export-xdpi="82.538063"
     inkscape:export-ydpi="82.538063" />
  <path
     d="m -11.202863,9084.9114 a 28.03599,28.03599 0 1 1 27.9796,27.9798 27.866759,27.866759 0 0 1 -27.9796,-27.9798"
     id="path28"
     inkscape:connector-curvature="0"
     style="fill:#12233f;fill-rule:evenodd;stroke-width:56.41044235"
     inkscape:export-filename="G:\Users\suitedoalex\sites\ligue-1-logo.png"
     inkscape:export-xdpi="82.538063"
     inkscape:export-ydpi="82.538063" />
  <path
     d="m -117.66066,8899.3156 a 25.864187,25.864187 0 1 1 25.779597,25.7793 25.74629,25.74629 0 0 1 -25.779597,-25.7793"
     id="path30"
     inkscape:connector-curvature="0"
     style="fill:#12233f;fill-rule:evenodd;stroke-width:56.41044235"
     inkscape:export-filename="G:\Users\suitedoalex\sites\ligue-1-logo.png"
     inkscape:export-xdpi="82.538063"
     inkscape:export-ydpi="82.538063" />
  <polygon
     points="9.729,41.56 7.024,41.56 7.024,36.871 8.245,36.871 8.245,40.496 9.729,40.496 "
     id="polygon32"
     transform="matrix(56.410442,0,0,56.410442,-1333.6392,6089.4343)"
     style="fill:#12233f"
     inkscape:export-filename="G:\Users\suitedoalex\sites\ligue-1-logo.png"
     inkscape:export-xdpi="82.538063"
     inkscape:export-ydpi="82.538063" />
  <rect
     x="-673.41187"
     y="8169.3457"
     width="68.989967"
     height="264.51028"
     id="rect34"
     style="fill:#12233f;stroke-width:56.41044235"
     inkscape:export-filename="G:\Users\suitedoalex\sites\ligue-1-logo.png"
     inkscape:export-xdpi="82.538063"
     inkscape:export-ydpi="82.538063" />
  <path
     d="m -353.0846,8159.7542 a 128.57068,128.57068 0 0 1 119.42094,66.3379 l -55.33868,30.3494 a 72.531418,72.531418 0 0 0 -64.81554,-36.5539 c -45.24118,0 -65.66179,36.7792 -65.66179,84.8975 0,44.8465 20.64619,80.7235 71.8105,80.7235 a 58.836091,58.836091 0 0 0 58.66683,-46.9338 h -60.58485 v -55.2819 h 132.33893 v 14.4971 a 128.0957,128.0957 0 0 1 -135.27227,145.7086 135.47645,135.47645 0 0 1 -138.03629,-141.4215 137.76332,137.76332 0 0 1 137.47222,-142.3229"
     id="path36"
     inkscape:connector-curvature="0"
     style="fill:#12233f;stroke-width:56.41044235"
     inkscape:export-filename="G:\Users\suitedoalex\sites\ligue-1-logo.png"
     inkscape:export-xdpi="82.538063"
     inkscape:export-ydpi="82.538063" />
  <path
     d="m -36.655763,8169.3662 v 162.293 a 42.842038,42.842038 0 0 0 47.6103,47.6099 42.332652,42.332652 0 0 0 47.0463,-44.1127 v -165.7902 h 69.723203 v 169.2312 c 0,60.4157 -41.179503,102.8395 -118.2362033,102.8395 -58.2155997,0 -115.1900967,-30.3486 -115.1900967,-95.2767 v -176.7909 z"
     id="path38"
     inkscape:connector-curvature="0"
     style="fill:#12233f;stroke-width:56.41044235"
     inkscape:export-filename="G:\Users\suitedoalex\sites\ligue-1-logo.png"
     inkscape:export-xdpi="82.538063"
     inkscape:export-ydpi="82.538063" />
  <polygon
     points="30.805,38.696 30.805,39.735 29.399,39.735 29.399,40.518 30.917,40.518 30.917,41.56 28.175,41.56 28.175,36.871 30.891,36.871 30.891,37.936 29.399,37.936 29.399,38.696 "
     id="polygon40"
     transform="matrix(56.410442,0,0,56.410442,-1333.6392,6089.4343)"
     style="fill:#12233f"
     inkscape:export-filename="G:\Users\suitedoalex\sites\ligue-1-logo.png"
     inkscape:export-xdpi="82.538063"
     inkscape:export-ydpi="82.538063" />
  <polygon
     points="35.589,37.876 35.589,36.871 37.489,36.871 37.489,41.56 36.262,41.56 36.262,37.876 "
     id="polygon42"
     transform="matrix(56.410442,0,0,56.410442,-1333.6392,6089.4343)"
     style="fill:#12233f"
     inkscape:export-filename="G:\Users\suitedoalex\sites\ligue-1-logo.png"
     inkscape:export-xdpi="82.538063"
     inkscape:export-ydpi="82.538063" />
  <rect
     width="2500.5234"
     height="3479.8804"
     id="rect2-4"
     x="1475.6792"
     y="6090.8813"
     style="fill:#dae025;stroke-width:56.14611816"
     inkscape:export-filename="G:\Users\suitedoalex\sites\ligue-1-logo-1.png"
     inkscape:export-xdpi="82.538063"
     inkscape:export-ydpi="82.538063" />
  <path
     d="m 2000.9034,7021.699 c 25.6588,-81.8588 65.8033,-149.0124 119.8721,-155.0196 103.5895,-11.566 224.4721,162.3742 245.6392,366.7464 19.5388,188.9877 -24.6482,395.8863 -128.2378,407.5084 -63.2205,7.0186 -121.7809,-18.8091 -166.9785,-116.896 a 331.67478,331.67478 0 0 0 158.5566,-8.8151 1297.8681,1297.8681 0 0 0 31.2734,-289.8264 849.39871,849.39871 0 0 0 -135.4806,-250.0187 542.06271,542.06271 0 0 0 -124.6444,46.321"
     id="path4-6"
     inkscape:connector-curvature="0"
     style="fill:#12233f;stroke-width:56.14611816"
     inkscape:export-filename="G:\Users\suitedoalex\sites\ligue-1-logo-1.png"
     inkscape:export-xdpi="82.538063"
     inkscape:export-ydpi="82.538063" />
  <path
     d="m 2083.9486,7418.889 c -40.8744,4.9998 -81.5803,-55.8097 -91.1812,-135.5928 -9.7134,-79.784 15.6646,-148.3387 56.3706,-153.223 40.762,-4.8852 81.6365,55.7528 91.1812,135.5367 9.5449,79.84 -15.6647,148.394 -56.3706,153.2791"
     id="path6-8"
     inkscape:connector-curvature="0"
     style="fill:#12233f;stroke-width:56.14611816"
     inkscape:export-filename="G:\Users\suitedoalex\sites\ligue-1-logo-1.png"
     inkscape:export-xdpi="82.538063"
     inkscape:export-ydpi="82.538063" />
  <path
     d="m 3014.4139,7026.8251 a 133.64742,133.64742 0 1 1 -148.2819,-119.8685 134.79167,134.79167 0 0 1 148.2819,119.8685"
     id="path8-2"
     inkscape:connector-curvature="0"
     style="fill:#12233f;stroke-width:56.14611816"
     inkscape:export-filename="G:\Users\suitedoalex\sites\ligue-1-logo-1.png"
     inkscape:export-xdpi="82.538063"
     inkscape:export-ydpi="82.538063" />
  <path
     d="m 3258.3294,6999.958 a 402.11458,402.11458 0 0 0 -434.5147,-366.0726 402.05057,402.05057 0 0 0 -340.3017,454.9523 409.06434,409.06434 0 0 0 346.2531,365.6796 c 0,0 -3.3126,-39.134 -8.085,-78.0427 -4.3794,-38.6849 -9.7133,-76.8645 -9.7133,-76.8645 l -46.3767,4.8851 a 847.53799,847.53799 0 0 1 -95.1115,-110.2152 730.89335,730.89335 0 0 1 -66.1963,-119.3663 c 0,0 19.7073,-69.9583 45.6468,-134.5262 26.6694,-65.5223 59.4026,-125.5988 59.4026,-125.5988 a 1245.0459,1245.0459 0 0 1 126.778,-22.1776 c 68.8912,-7.8607 140.0284,-8.4221 140.0284,-8.4221 a 888.47083,888.47083 0 0 1 88.1493,104.2634 1054.9856,1054.9856 0 0 1 73.4954,125.4304 612.30545,612.30545 0 0 1 -34.9791,128.6866 855.46133,855.46133 0 0 1 -70.4073,131.3822 l -41.7727,6.8494 c 0,0 5.6708,36.8322 8.4219,74.6188 3.0881,39.7485 4.941,79.0533 4.941,79.0533 a 409.0301,409.0301 0 0 0 254.3418,-434.5151"
     id="path10-2"
     inkscape:connector-curvature="0"
     style="fill:#12233f;stroke-width:56.14611816"
     inkscape:export-filename="G:\Users\suitedoalex\sites\ligue-1-logo-1.png"
     inkscape:export-xdpi="82.538063"
     inkscape:export-ydpi="82.538063" />
  <path
     d="m 3180.3593,6660.584 c -98.5365,-88.6551 -179.8921,-158.1073 -178.8254,-162.4271 a 282.23925,282.23925 0 0 1 63.1645,28.2971 708.54551,708.54551 0 0 1 142.7795,98.6491 647.9077,647.9077 0 0 1 153.7842,190.8404 1891.3943,1891.3943 0 0 1 -180.9028,-155.3564"
     id="path12-9"
     inkscape:connector-curvature="0"
     style="fill:#12233f;stroke-width:56.14611816"
     inkscape:export-filename="G:\Users\suitedoalex\sites\ligue-1-logo-1.png"
     inkscape:export-xdpi="82.538063"
     inkscape:export-ydpi="82.538063" />
  <path
     d="m 2473.9513,6483.0469 a 772.96701,772.96701 0 0 0 -139.4107,66.0276 771.89686,771.89686 0 0 0 262.876,-97.5817 709.8262,709.8262 0 0 0 -123.4653,31.5541"
     id="path14-8"
     inkscape:connector-curvature="0"
     style="fill:#12233f;stroke-width:56.14611816"
     inkscape:export-filename="G:\Users\suitedoalex\sites\ligue-1-logo-1.png"
     inkscape:export-xdpi="82.538063"
     inkscape:export-ydpi="82.538063" />
  <path
     d="m 2834.5436,6459.631 a 289.69208,289.69208 0 0 0 -157.7145,-17.1802 144.80084,144.80084 0 0 1 48.2857,16.2258 l -191.5705,86.128 -229.1324,60.0204 a 50.186771,50.186771 0 0 1 -28.7467,-15.8328 c -59.4026,45.3657 -97.2452,86.1279 -96.1784,95.8974 2.1336,19.5389 158.3882,-16.6196 339.2349,-78.8857 181.0712,-62.1569 322.3349,-127.7322 315.8219,-146.376"
     id="path16-1"
     inkscape:connector-curvature="0"
     style="fill:#12233f;stroke-width:56.14611816"
     inkscape:export-filename="G:\Users\suitedoalex\sites\ligue-1-logo-1.png"
     inkscape:export-xdpi="82.538063"
     inkscape:export-ydpi="82.538063" />
  <path
     d="m 3349.6454,7265.3058 c 23.6376,-167.9852 57.6621,-305.3224 74.2253,-299.6513 a 605.4107,605.4107 0 0 1 29.7012,318.8534 c -20.3248,140.8148 -86.9704,290.8931 -115.2119,289.2089 -17.4052,-1.0667 -12.1836,-140.5903 11.2854,-308.411"
     id="path18-0"
     inkscape:connector-curvature="0"
     style="fill:#12233f;stroke-width:56.14611816"
     inkscape:export-filename="G:\Users\suitedoalex\sites\ligue-1-logo-1.png"
     inkscape:export-xdpi="82.538063"
     inkscape:export-ydpi="82.538063" />
  <path
     d="m 2595.8389,7897.9402 c -84.2192,-17.1802 -126.4971,-50.1347 -138.1194,-95.8942 -25.9396,-100.951 138.1194,-194.2098 341.2,-225.2024 185.619,-28.3541 345.2424,31.2172 362.0301,100.2203 13.0259,53.6202 -11.903,96.7965 -82.9278,143.6781 a 352.6403,352.6403 0 0 0 3.2003,-116.1101 2061.7305,2061.7305 0 0 0 -267.9854,-43.1762 1056.6778,1056.6778 0 0 0 -253.3312,126.7778 299.72539,299.72539 0 0 0 35.9334,109.7099"
     id="path20-1"
     inkscape:connector-curvature="0"
     style="fill:#12233f;stroke-width:56.14611816"
     inkscape:export-filename="G:\Users\suitedoalex\sites\ligue-1-logo-1.png"
     inkscape:export-xdpi="82.538063"
     inkscape:export-ydpi="82.538063" />
  <path
     d="m 2980.9396,7809.6087 c 5.9514,35.8771 -53.6196,75.3479 -133.0663,88.0399 -79.5591,12.745 -148.3943,-6.0641 -154.065,-42.1095 -5.9515,-35.934 53.7879,-75.461 133.1786,-88.0937 79.166,-12.6889 148.2819,6.1764 153.9527,42.1657"
     id="path22-7"
     inkscape:connector-curvature="0"
     style="fill:#12233f;stroke-width:56.14611816"
     inkscape:export-filename="G:\Users\suitedoalex\sites\ligue-1-logo-1.png"
     inkscape:export-xdpi="82.538063"
     inkscape:export-ydpi="82.538063" />
  <path
     d="m 3227.0324,9118.7174 c 0,0 -235.5329,4.2115 -351.0255,-127.9006 -0.2807,-0.2807 -0.4491,-0.6706 -0.7298,-0.8421 l -0.4491,-0.616 -0.5615,-0.2807 a 200.85601,200.85601 0 0 0 -94.3816,-57.7748 10.280355,10.280355 0 0 0 -2.5828,-0.616 c -1.4598,-0.4522 -2.9195,-0.7859 -4.2109,-1.0667 -2.3019,-0.616 -4.3232,-1.1789 -6.513,-1.6281 l -0.7298,-0.1715 a 211.60181,211.60181 0 0 0 -29.7013,-3.7054 c -3.4809,-0.2261 -6.8497,-0.2261 -10.4432,-0.2261 -3.5933,0 -7.2427,0 -10.8362,0.2261 l -3.481,0.3353 c -2.4704,0.1092 -4.4916,0.2807 -6.9622,0.5068 -1.4598,0.2808 -2.7511,0.3899 -4.2108,0.5615 -2.1898,0.2261 -4.211,0.616 -6.0639,0.8982 -1.7967,0.1716 -3.2565,0.5069 -4.5477,0.733 -2.0214,0.3353 -3.8741,0.6706 -5.7831,1.0667 a 43.08934,43.08934 0 0 1 -4.6601,1.0074 c -1.8529,0.5069 -3.5933,1.0106 -5.5023,1.4597 -1.4599,0.4523 -3.0319,0.8421 -4.604,1.2351 l -5.1093,1.572 c -1.5721,0.4523 -3.1442,1.1229 -4.604,1.4605 -1.572,0.733 -3.3687,1.2881 -4.9408,1.9088 -1.5722,0.5614 -3.2004,1.2351 -4.4918,1.6843 -1.7404,0.6706 -3.3126,1.4597 -5.0531,2.1895 -1.4599,0.616 -2.7511,1.2351 -4.3795,1.965 -1.572,0.7329 -3.3125,1.5158 -4.7723,2.2456 -1.2914,0.733 -2.9196,1.4044 -4.3794,2.1904 -1.5721,0.7859 -2.8635,1.6281 -4.4355,2.5263 a 37.638675,37.638675 0 0 0 -4.3795,2.5264 c -1.4597,0.733 -2.7511,1.6843 -4.3793,2.6948 -1.4037,0.7868 -2.695,1.6851 -4.1548,2.4711 a 34.839791,34.839791 0 0 1 -4.211,2.9755 c -1.2913,1.0105 -2.5827,1.965 -3.7617,2.8632 a 37.157502,37.157502 0 0 0 -4.2111,3.0317 c -1.4597,1.1236 -2.5827,2.078 -3.9301,3.1447 a 50.332189,50.332189 0 0 0 -3.8742,3.3124 27.719901,27.719901 0 0 0 -3.6496,3.2001 c -1.4597,1.1797 -2.6389,2.3026 -3.8741,3.4816 -1.0667,1.1789 -2.2458,2.0772 -3.3686,3.2001 -1.2914,1.3474 -2.5828,2.6948 -3.7619,4.0422 -1.0106,0.9544 -1.9089,1.8534 -2.7512,2.6956 l -0.1684,0.1715 c -3.0319,3.3124 -5.6146,6.6248 -8.4219,10.0502 -28.5222,30.5997 -130.259,120.8821 -343.7827,120.8821 h -354.3381 v 13.3072 h 354.3381 c 0,0 235.0838,-4.1553 350.9133,127.6761 a 12.255014,12.255014 0 0 0 1.0106,1.2351 c 0,0.2261 0.2807,0.3899 0.4491,0.5614 l 0.2808,0.2262 a 201.72066,201.72066 0 0 0 94.6624,57.7747 10.499325,10.499325 0 0 0 2.5826,0.7329 c 1.2914,0.4523 2.9197,0.8422 4.211,1.179 2.1897,0.4523 4.211,1.0106 6.4007,1.3474 l 0.6737,0.2262 a 190.6565,190.6565 0 0 0 29.8698,3.7053 c 3.481,0.2262 6.9621,0.2807 10.4431,0.2807 3.5934,0 7.0745,-0.078 10.5556,-0.2807 a 22.068794,22.068794 0 0 0 3.481,-0.2807 c 2.4704,-0.1715 4.7724,-0.2807 7.1306,-0.5068 1.4597,-0.2261 2.9195,-0.3899 4.2109,-0.5614 2.1897,-0.3353 4.3232,-0.4523 6.2323,-0.8422 1.572,-0.2807 3.0319,-0.5068 4.4916,-0.8421 1.8529,-0.3353 3.7618,-0.5614 5.7831,-1.1228 1.4598,-0.1716 3.0319,-0.6706 4.3793,-0.8983 2.0213,-0.5068 3.7619,-0.9544 5.6147,-1.4605 a 31.508641,31.508641 0 0 0 4.3232,-1.2351 c 1.909,-0.5614 3.6495,-1.0106 5.6708,-1.572 1.2914,-0.5614 2.9196,-0.9006 4.3794,-1.6312 1.6843,-0.5614 3.481,-1.0667 5.3339,-1.7965 1.2913,-0.616 2.7511,-1.0667 4.211,-1.6843 1.7405,-0.733 3.481,-1.2913 5.0531,-2.0773 1.3475,-0.6705 2.7512,-1.2889 4.2109,-2.0187 1.5721,-0.8422 3.3688,-1.6305 4.9409,-2.3603 a 45.193134,45.193134 0 0 0 4.0426,-2.0781 41.451558,41.451558 0 0 0 4.9408,-2.6948 c 1.2913,-0.7329 2.7511,-1.4597 3.9302,-2.2456 1.5721,-0.8983 3.2004,-1.965 4.7724,-2.9194 1.123,-0.7868 2.4705,-1.5728 3.7619,-2.4679 1.6282,-1.0106 3.0879,-2.0211 4.4916,-3.0317 1.2914,-0.7868 2.4704,-1.7412 3.6496,-2.5833 1.5719,-1.0667 3.0318,-2.2457 4.6039,-3.4247 a 26.858058,26.858058 0 0 0 3.3126,-2.8071 c 1.3475,-1.1828 2.9196,-2.361 4.5478,-3.5938 a 20.754975,20.754975 0 0 1 3.2004,-2.6948 c 1.2913,-1.4597 2.7511,-2.751 4.3232,-4.2107 1.0106,-0.9544 1.9091,-1.7965 2.7512,-2.7509 1.572,-1.5166 3.2003,-3.2009 4.6601,-4.5483 a 16.289113,16.289113 0 0 1 2.1336,-2.2457 v -0.1715 c 2.9195,-3.2563 5.9514,-6.6256 8.5903,-9.9941 28.5222,-30.6558 130.259,-120.939 343.6143,-120.939 h 354.3381 v -13.3641 z m -501.3286,191.4027 a 183.84935,183.84935 0 1 1 183.6539,-183.9319 183.8443,183.8443 0 0 1 -183.6539,183.9319"
     id="path24-9"
     inkscape:connector-curvature="0"
     style="fill:#12233f;stroke-width:56.14611816"
     inkscape:export-filename="G:\Users\suitedoalex\sites\ligue-1-logo-1.png"
     inkscape:export-xdpi="82.538063"
     inkscape:export-ydpi="82.538063" />
  <path
     d="m 2605.2715,9010.6092 c 6.2322,-4.9405 52.4967,25.3784 98.7049,68.7793 a 117.71877,117.71877 0 0 0 28.8029,-24.5917 c 26.8379,-28.2979 26.2764,-49.858 33.9123,-47.893 1.4598,0.2807 3.9302,1.1228 4.3794,2.9194 a 103.75803,103.75803 0 0 1 -10.1624,58.7852 348.92849,348.92849 0 0 1 -22.1778,43.9623 229.09807,229.09807 0 0 1 39.4707,86.634 97.062603,97.062603 0 0 1 -5.39,56.7634 6.1199271,6.1199271 0 0 1 -4.6601,3.1977 c -5.9515,0 -2.302,-17.4617 -20.9987,-51.9913 a 208.88715,208.88715 0 0 0 -20.4371,-32.4524 c -20.718,-26.2206 -20.6057,-24.0311 -20.6057,-24.0311 0,0 -18.8089,24.0311 -37.7864,44.1284 -6.4006,6.5694 -12.4643,11.6783 -17.8544,16.4503 -6.906,6.1764 -12.7452,10.6678 -18.2475,9.2642 a 4.7348023,4.7348023 0 0 1 -2.9196,-5.2212 190.05854,190.05854 0 0 0 32.6209,-94.6623 180.25712,180.25712 0 0 0 -47.1066,-92.6411 c -7.6358,-9.3796 -14.598,-13.2503 -9.5448,-17.4087"
     id="path26-7"
     inkscape:connector-curvature="0"
     style="fill:#12233f;fill-rule:evenodd;stroke-width:56.14611816"
     inkscape:export-filename="G:\Users\suitedoalex\sites\ligue-1-logo-1.png"
     inkscape:export-xdpi="82.538063"
     inkscape:export-ydpi="82.538063" />
  <path
     d="m 2792.2437,9225.1875 a 27.904622,27.904622 0 1 1 27.8485,27.8487 27.736183,27.736183 0 0 1 -27.8485,-27.8487"
     id="path28-1"
     inkscape:connector-curvature="0"
     style="fill:#12233f;fill-rule:evenodd;stroke-width:56.14611816"
     inkscape:export-filename="G:\Users\suitedoalex\sites\ligue-1-logo-1.png"
     inkscape:export-xdpi="82.538063"
     inkscape:export-ydpi="82.538063" />
  <path
     d="m 2686.2847,9040.4611 a 25.742995,25.742995 0 1 1 25.6588,25.6592 25.625651,25.625651 0 0 1 -25.6588,-25.6592"
     id="path30-1"
     inkscape:connector-curvature="0"
     style="fill:#12233f;fill-rule:evenodd;stroke-width:56.14611816"
     inkscape:export-filename="G:\Users\suitedoalex\sites\ligue-1-logo-1.png"
     inkscape:export-xdpi="82.538063"
     inkscape:export-ydpi="82.538063" />
  <polygon
     points="9.729,40.496 9.729,41.56 7.024,41.56 7.024,36.871 8.245,36.871 8.245,40.496 "
     id="polygon32-1"
     transform="matrix(56.14612,0,0,56.14612,1475.6789,6090.8808)"
     style="fill:#12233f"
     inkscape:export-filename="G:\Users\suitedoalex\sites\ligue-1-logo-1.png"
     inkscape:export-xdpi="82.538063"
     inkscape:export-ydpi="82.538063" />
  <rect
     x="2132.8125"
     y="8161.0459"
     width="68.66671"
     height="263.27087"
     id="rect34-0"
     style="fill:#12233f;stroke-width:56.14611816"
     inkscape:export-filename="G:\Users\suitedoalex\sites\ligue-1-logo-1.png"
     inkscape:export-xdpi="82.538063"
     inkscape:export-ydpi="82.538063" />
  <path
     d="m 2451.6388,8151.4998 a 127.96824,127.96824 0 0 1 118.8614,66.0275 l -55.0793,30.2067 a 72.191558,72.191558 0 0 0 -64.5119,-36.3823 c -45.0292,0 -65.3541,36.6069 -65.3541,84.4999 0,44.6359 20.5495,80.3445 71.474,80.3445 a 58.560404,58.560404 0 0 0 58.392,-46.7132 h -60.301 v -55.023 h 131.7189 v 14.4293 a 127.49549,127.49549 0 0 1 -134.6385,145.0255 134.84165,134.84165 0 0 1 -137.3896,-140.7579 137.1178,137.1178 0 0 1 136.8281,-141.657"
     id="path36-8"
     inkscape:connector-curvature="0"
     style="fill:#12233f;stroke-width:56.14611816"
     inkscape:export-filename="G:\Users\suitedoalex\sites\ligue-1-logo-1.png"
     inkscape:export-xdpi="82.538063"
     inkscape:export-ydpi="82.538063" />
  <path
     d="m 2766.5849,8161.0673 v 161.532 a 42.641294,42.641294 0 0 0 47.3873,47.3877 42.134295,42.134295 0 0 0 46.8259,-43.9069 v -165.0128 h 69.3965 v 168.4382 c 0,60.1327 -40.9866,102.3577 -117.6822,102.3577 -57.9428,0 -114.6503,-30.2067 -114.6503,-94.8308 v -175.962 z"
     id="path38-5"
     inkscape:connector-curvature="0"
     style="fill:#12233f;stroke-width:56.14611816"
     inkscape:export-filename="G:\Users\suitedoalex\sites\ligue-1-logo-1.png"
     inkscape:export-xdpi="82.538063"
     inkscape:export-ydpi="82.538063" />
  <polygon
     points="29.399,38.696 30.805,38.696 30.805,39.735 29.399,39.735 29.399,40.518 30.917,40.518 30.917,41.56 28.175,41.56 28.175,36.871 30.891,36.871 30.891,37.936 29.399,37.936 "
     id="polygon40-6"
     transform="matrix(56.14612,0,0,56.14612,1475.6789,6090.8808)"
     style="fill:#12233f"
     inkscape:export-filename="G:\Users\suitedoalex\sites\ligue-1-logo-1.png"
     inkscape:export-xdpi="82.538063"
     inkscape:export-ydpi="82.538063" />
  <polygon
     points="36.262,37.876 35.589,37.876 35.589,36.871 37.489,36.871 37.489,41.56 36.262,41.56 "
     id="polygon42-3"
     transform="matrix(56.14612,0,0,56.14612,1475.6789,6090.8808)"
     style="fill:#12233f"
     inkscape:export-filename="G:\Users\suitedoalex\sites\ligue-1-logo-1.png"
     inkscape:export-xdpi="82.538063"
     inkscape:export-ydpi="82.538063" />
  <path
     d="m 2067.8403,8608.2689 a 94.91445,94.91445 0 0 0 -103.3089,97.0733 92.010579,92.010579 0 0 0 101.1753,97.1325 95.144094,95.144094 0 0 0 104.7687,-97.9185 92.390683,92.390683 0 0 0 -102.6351,-96.2912 m 0.4492,160.2376 c -30.4313,0 -50.307,-24.4233 -50.307,-62.0415 0,-39.5824 19.4266,-64.231 50.7561,-64.231 29.5328,0 48.1172,23.8065 48.1172,61.9853 0,38.9656 -19.1459,64.2872 -48.5663,64.2872"
     id="path44-4"
     inkscape:connector-curvature="0"
     style="fill:#ec1c24;stroke-width:56.14611816"
     inkscape:export-filename="G:\Users\suitedoalex\sites\ligue-1-logo-1.png"
     inkscape:export-xdpi="82.538063"
     inkscape:export-ydpi="82.538063" />
  <path
     d="m 2895.7092,8610.0163 c -55.8092,0 -78.3799,23.0197 -78.3799,79.447 v 4.3791 c 0,34.0813 -1.0669,71.6426 -2.1898,91.3499 l -0.5614,12.0713 h 55.9215 l -1.0106,-11.0607 c -1.0106,-17.2933 -1.2913,-33.7436 -1.2913,-49.9702 v -9.5449 l 0.2807,-27.455 v -9.7695 c 0.8422,-19.5389 7.5235,-42.8394 34.6421,-42.8394 a 78.367071,78.367071 0 0 1 26.108,4.6037 l 2.7511,1.6842 5.6146,-36.7753 -1.909,-0.4522 a 161.95742,161.95742 0 0 0 -39.976,-5.6711"
     id="path46-4"
     inkscape:connector-curvature="0"
     style="fill:#ec1c24;stroke-width:56.14611816"
     inkscape:export-filename="G:\Users\suitedoalex\sites\ligue-1-logo-1.png"
     inkscape:export-xdpi="82.538063"
     inkscape:export-ydpi="82.538063" />
  <path
     d="m 2548.7436,8646.181 5.2215,-36.1585 h -57.8305 v -12.4081 c 1.123,-26.7259 12.0153,-40.3692 32.4526,-40.3692 a 107.54003,107.54003 0 0 1 36.1019,4.7167 l 2.4704,0.733 5.0532,-35.9901 -1.7405,-0.616 a 219.76153,219.76153 0 0 0 -49.128,-6.5132 71.886685,71.886685 0 0 0 -77.0885,77.875 l -0.1684,34.1367 0.5614,65.6353 -1.0107,80.906 -0.8421,48.9035 v 11.173 h 54.2371 v -11.4537 l -1.3475,-47.4969 -0.4491,-52.219 v -42.1657 c 0,0 0.4491,-30.3189 0.4491,-38.6841 z"
     id="path48-8"
     inkscape:connector-curvature="0"
     style="fill:#ec1c24;stroke-width:56.14611816"
     inkscape:export-filename="G:\Users\suitedoalex\sites\ligue-1-logo-1.png"
     inkscape:export-xdpi="82.538063"
     inkscape:export-ydpi="82.538063" />
  <path
     d="m 2670.0411,8608.2689 a 95.141848,95.141848 0 0 0 -103.4773,97.0733 92.198101,92.198101 0 0 0 101.3437,97.1325 95.087944,95.087944 0 0 0 104.7687,-97.9185 92.390683,92.390683 0 0 0 -102.6351,-96.2912 m 0.4491,160.2376 c -30.4312,0 -50.1384,-24.4233 -50.1384,-62.0415 0,-39.5824 19.258,-64.231 50.5876,-64.231 29.7013,0 48.2295,23.8065 48.2295,61.9853 0,38.9656 -19.1458,64.2872 -48.6787,64.2872"
     id="path50-9"
     inkscape:connector-curvature="0"
     style="fill:#ec1c24;stroke-width:56.14611816"
     inkscape:export-filename="G:\Users\suitedoalex\sites\ligue-1-logo-1.png"
     inkscape:export-xdpi="82.538063"
     inkscape:export-ydpi="82.538063" />
  <path
     d="m 2388.7496,8751.1805 v -30.8804 l 0.4492,-30.9366 a 71.015298,71.015298 0 0 0 -75.2358,-79.2225 h -31.0488 a 70.8856,70.8856 0 0 0 -75.1797,79.1103 l -0.1684,11.173 c 0,48.622 0,60.1319 -2.1898,94.3816 l -0.2807,2.4702 h 55.9777 l -0.6183,-14.3731 -1.2914,-39.1902 -0.8422,-38.4042 v -4.4913 a 70.82833,70.82833 0 0 1 5.7831,-36.327 40.844056,40.844056 0 0 1 67.8245,0 70.833945,70.833945 0 0 1 5.7831,36.327 v 4.4913 l -0.8423,38.4042 -1.2913,39.1902 -0.4491,14.3731 h 54.6301 l -0.7298,-12.8573 c 0.1684,0.4523 -0.2808,-33.2383 -0.2808,-33.2383"
     id="path52-9"
     inkscape:connector-curvature="0"
     style="fill:#ec1c24;stroke-width:56.14611816"
     inkscape:export-filename="G:\Users\suitedoalex\sites\ligue-1-logo-1.png"
     inkscape:export-xdpi="82.538063"
     inkscape:export-ydpi="82.538063" />
  <path
     d="m 3495.7432,8750.8787 0.1123,-10.1625 v -12.9695 l 0.8984,-38.8534 a 68.989545,68.989545 0 0 0 -27.8485,-65.6907 90.708547,90.708547 0 0 0 -50.8684,-13.4756 91.729846,91.729846 0 0 0 -66.6454,24.1995 71.979326,71.979326 0 0 0 -57.269,-23.7504 h -30.8804 a 70.982171,70.982171 0 0 0 -75.3482,79.1102 l -0.1123,11.1731 c 0,48.6228 0,60.0765 -2.1896,94.3254 l -0.1684,2.4703 h 55.6408 l -0.393,-14.317 -1.179,-39.1902 -0.8984,-38.4596 v -4.4921 a 71.117483,71.117483 0 0 1 5.6708,-36.3261 41.001827,41.001827 0 0 1 67.9929,0 70.511667,70.511667 0 0 1 5.6708,36.3261 v 4.4921 l -0.7298,38.4596 -1.4598,39.1902 -0.4491,14.317 h 54.63 l -0.5614,-12.8012 c 0,0.3899 -0.4491,-33.2945 -0.4491,-33.2945 v -30.8242 l 0.4491,-34.2489 a 51.456796,51.456796 0 0 1 4.7725,-18.6969 37.632499,37.632499 0 0 1 9.5448,-12.9695 36.348437,36.348437 0 0 1 24.6482,-8.7589 34.166599,34.166599 0 0 1 33.6315,22.9636 148.78721,148.78721 0 0 1 2.4704,39.7516 c 0,29.2522 -0.393,49.2403 -2.5827,77.0883 l -0.8984,9.2642 -0.1684,2.5264 h 56.1461 l -0.6183,-10.6678 -0.5614,-35.7086"
     id="path54-2"
     inkscape:connector-curvature="0"
     style="fill:#ec1c24;stroke-width:56.14611816"
     inkscape:export-filename="G:\Users\suitedoalex\sites\ligue-1-logo-1.png"
     inkscape:export-xdpi="82.538063"
     inkscape:export-ydpi="82.538063" />
  <path
     d="m 3715.5885,8678.6295 v -3.9299 a 52.440476,52.440476 0 0 0 -32.6209,-56.1458 118.75746,118.75746 0 0 0 -49.9701,-8.8151 256.77249,256.77249 0 0 0 -71.9232,10.2155 l -1.8528,0.5614 5.3339,36.4954 2.7512,-1.1236 a 150.45026,150.45026 0 0 1 57.1006,-12.4643 c 29.7575,0 41.7727,10.7239 41.7727,36.8883 0,0 -0.1123,2.5826 -0.2807,4.4352 a 223.9781,223.9781 0 0 0 -90.0022,8.0853 52.341659,52.341659 0 0 0 -37.0004,49.0719 59.632795,59.632795 0 0 0 37.3934,53.6779 166.88368,166.88368 0 0 0 75.9657,6.5133 c 11.903,-1.4036 51.2052,-8.2537 59.8517,-38.4035 a 587.65281,587.65281 0 0 0 3.4811,-85.062 m -49.4085,37.8428 v 4.6598 a 60.94156,60.94156 0 0 1 -4.2111,30.5435 23.565088,23.565088 0 0 1 -10.7239,9.9941 54.012568,54.012568 0 0 1 -27.2308,5.7272 38.662218,38.662218 0 0 1 -26.6694,-9.6572 21.459608,21.459608 0 0 1 -1.7405,-26.2767 c 7.0744,-10.8924 24.1989,-15.2714 58.6726,-15.2714 0,0 8.8711,0.2729 11.9031,0.2729"
     id="path56-9"
     inkscape:connector-curvature="0"
     style="fill:#ec1c24;stroke-width:56.14611816"
     inkscape:export-filename="G:\Users\suitedoalex\sites\ligue-1-logo-1.png"
     inkscape:export-xdpi="82.538063"
     inkscape:export-ydpi="82.538063" />
  <path
     d="m 3137.2942,8674.6988 a 52.469672,52.469672 0 0 0 -32.5649,-56.1458 119.02977,119.02977 0 0 0 -50.0261,-8.8151 255.46878,255.46878 0 0 0 -71.867,10.2155 l -1.909,0.5614 5.3339,36.4954 2.8072,-1.1228 a 149.34531,149.34531 0 0 1 57.1007,-12.4643 c 29.7013,0 41.7165,10.7239 41.7165,36.8876 0,0 -0.1123,2.5825 -0.2807,4.4359 a 225.03365,225.03365 0 0 0 -90.1706,8.0845 52.333799,52.333799 0 0 0 -36.7757,49.0719 59.632795,59.632795 0 0 0 37.3933,53.6787 166.46202,166.46202 0 0 0 75.9095,6.5133 c 11.903,-1.4044 51.2053,-8.2537 59.8517,-38.4042 a 587.65281,587.65281 0 0 0 3.4811,-85.0613 z m -49.4087,41.7727 v 4.6606 a 60.942683,60.942683 0 0 1 -4.2109,30.5435 23.571265,23.571265 0 0 1 -10.7239,9.9941 53.8868,53.8868 0 0 1 -27.2309,5.7264 38.662218,38.662218 0 0 1 -26.6693,-9.6572 21.381004,21.381004 0 0 1 -1.7407,-26.2759 c 6.9622,-10.8924 24.0306,-15.2722 58.7289,-15.2722 0,0 8.8149,0.2729 11.8468,0.2729"
     id="path58-4"
     inkscape:connector-curvature="0"
     style="fill:#ec1c24;stroke-width:56.14611816"
     inkscape:export-filename="G:\Users\suitedoalex\sites\ligue-1-logo-1.png"
     inkscape:export-xdpi="82.538063"
     inkscape:export-ydpi="82.538063" />
  <path
     d="m 1892.4796,8559.2749 a 168.58659,168.58659 0 0 1 74.5059,15.8897 l 2.4705,1.179 V 8531.37 l -0.7299,-0.1715 a 261.83855,261.83855 0 0 0 -85.2298,-10.6639 158.82951,158.82951 0 0 0 -114.2012,45.1974 140.46244,140.46244 0 0 0 -35.2037,102.9721 133.06631,133.06631 0 0 0 39.0778,95.729 160.45663,160.45663 0 0 0 117.57,36.9445 296.92202,296.92202 0 0 0 51.7666,-6.1203 l 2.4705,-0.5614 -14.3734,-36.0454 -1.8529,0.3353 a 157.59598,157.59598 0 0 1 -28.859,3.8176 87.522251,87.522251 0 0 1 -98.7049,-95.3921 93.105425,93.105425 0 0 1 91.2935,-108.1372"
     id="path60-1"
     inkscape:connector-curvature="0"
     style="fill:#ec1c24;stroke-width:56.14611816"
     inkscape:export-filename="G:\Users\suitedoalex\sites\ligue-1-logo-1.png"
     inkscape:export-xdpi="82.538063"
     inkscape:export-ydpi="82.538063" />
  <rect
     width="2512.2954"
     height="2743.2964"
     id="rect2-5"
     x="4260.96"
     y="6576.4995"
     style="fill:#dae025;stroke-width:49.96821213"
     inkscape:export-filename="G:\Users\suitedoalex\sites\ligue-1-logo-2.png"
     inkscape:export-xdpi="82.538063"
     inkscape:export-ydpi="82.538063" />
  <path
     d="m 4789.3055,7531.6329 c 25.7796,-82.244 66.1131,-149.7133 120.4363,-155.7494 104.0773,-11.6206 225.529,163.1391 246.7956,368.4735 19.6309,189.8774 -24.7641,397.7499 -128.8414,409.4267 -63.5181,7.0512 -122.3542,-18.8973 -167.7646,-117.4466 a 333.23622,333.23622 0 0 0 159.3031,-8.8564 1303.9781,1303.9781 0 0 0 31.4206,-291.191 853.3975,853.3975 0 0 0 -136.1184,-251.1953 544.61461,544.61461 0 0 0 -125.2312,46.5385"
     id="path4-4"
     inkscape:connector-curvature="0"
     style="fill:#12233f;stroke-width:56.41044235"
     inkscape:export-filename="G:\Users\suitedoalex\sites\ligue-1-logo-2.png"
     inkscape:export-xdpi="82.538063"
     inkscape:export-ydpi="82.538063" />
  <path
     d="m 4872.7416,7930.6928 c -41.0668,5.0232 -81.9644,-56.0717 -91.6105,-136.2315 -9.7591,-80.1589 15.7385,-149.0357 56.636,-153.9435 40.954,-4.9077 82.0208,56.0157 91.6106,136.1746 9.5898,80.2159 -15.7385,149.0927 -56.6361,154.0004"
     id="path6-9"
     inkscape:connector-curvature="0"
     style="fill:#12233f;stroke-width:56.41044235"
     inkscape:export-filename="G:\Users\suitedoalex\sites\ligue-1-logo-2.png"
     inkscape:export-xdpi="82.538063"
     inkscape:export-ydpi="82.538063" />
  <path
     d="m 5807.5873,7536.784 a 134.27659,134.27659 0 1 1 -148.98,-120.4338 135.42624,135.42624 0 0 1 148.98,120.4338"
     id="path8-3"
     inkscape:connector-curvature="0"
     style="fill:#12233f;stroke-width:56.41044235"
     inkscape:export-filename="G:\Users\suitedoalex\sites\ligue-1-logo-2.png"
     inkscape:export-xdpi="82.538063"
     inkscape:export-ydpi="82.538063" />
  <path
     d="m 6052.6508,7509.7898 a 404.00763,404.00763 0 0 0 -436.56,-367.7958 403.94333,403.94333 0 0 0 -341.9037,457.0942 410.99012,410.99012 0 0 0 347.8832,367.4013 c 0,0 -3.3282,-39.318 -8.1231,-78.4107 -4.4,-38.8666 -9.759,-77.2264 -9.759,-77.2264 l -46.595,4.9078 a 851.52805,851.52805 0 0 1 -95.5594,-110.7337 734.33421,734.33421 0 0 1 -66.5078,-119.9285 c 0,0 19.8,-70.2874 45.8616,-135.1594 26.795,-65.8311 59.6823,-126.1899 59.6823,-126.1899 a 1250.9072,1250.9072 0 0 1 127.3747,-22.2821 c 69.2156,-7.8973 140.6877,-8.4618 140.6877,-8.4618 a 892.65356,892.65356 0 0 1 88.5644,104.7546 1059.9522,1059.9522 0 0 1 73.8412,126.0207 615.18802,615.18802 0 0 1 -35.1437,129.2925 859.48866,859.48866 0 0 1 -70.7387,132.0006 l -41.9693,6.882 c 0,0 5.6974,37.0053 8.4615,74.9698 3.1027,39.9356 4.9642,79.426 4.9642,79.426 a 410.95571,410.95571 0 0 0 255.5389,-436.5612"
     id="path10-7"
     inkscape:connector-curvature="0"
     style="fill:#12233f;stroke-width:56.41044235"
     inkscape:export-filename="G:\Users\suitedoalex\sites\ligue-1-logo-2.png"
     inkscape:export-xdpi="82.538063"
     inkscape:export-ydpi="82.538063" />
  <path
     d="m 5974.3141,7168.8181 c -99.0005,-89.0723 -180.7392,-158.852 -179.6674,-163.1921 a 283.56796,283.56796 0 0 1 63.4617,28.4304 711.88116,711.88116 0 0 1 143.4517,99.1131 650.95789,650.95789 0 0 1 154.508,191.7395 1900.2986,1900.2986 0 0 1 -181.754,-156.0878"
     id="path12-0"
     inkscape:connector-curvature="0"
     style="fill:#12233f;stroke-width:56.41044235"
     inkscape:export-filename="G:\Users\suitedoalex\sites\ligue-1-logo-2.png"
     inkscape:export-xdpi="82.538063"
     inkscape:export-ydpi="82.538063" />
  <path
     d="m 5264.5804,6990.4451 a 776.60594,776.60594 0 0 0 -140.0671,66.3387 775.53076,775.53076 0 0 0 264.1136,-98.041 713.16788,713.16788 0 0 0 -124.0465,31.7023"
     id="path14-6"
     inkscape:connector-curvature="0"
     style="fill:#12233f;stroke-width:56.41044235"
     inkscape:export-filename="G:\Users\suitedoalex\sites\ligue-1-logo-2.png"
     inkscape:export-xdpi="82.538063"
     inkscape:export-ydpi="82.538063" />
  <path
     d="m 5626.8703,6966.9193 a 291.05588,291.05588 0 0 0 -158.457,-17.2613 145.48253,145.48253 0 0 1 48.513,16.3022 l -192.4724,86.5334 -230.2111,60.3034 a 50.423037,50.423037 0 0 1 -28.8821,-15.9084 c -59.6822,45.5802 -97.7029,86.5342 -96.6311,96.3497 2.1437,19.6302 159.1339,-16.6976 340.8319,-79.2568 181.9237,-62.4501 323.8523,-128.3342 317.3088,-147.0653"
     id="path16-0"
     inkscape:connector-curvature="0"
     style="fill:#12233f;stroke-width:56.41044235"
     inkscape:export-filename="G:\Users\suitedoalex\sites\ligue-1-logo-2.png"
     inkscape:export-xdpi="82.538063"
     inkscape:export-ydpi="82.538063" />
  <path
     d="m 6144.3968,7776.3875 c 23.7488,-168.7774 57.9338,-306.7602 74.5752,-301.0626 a 608.26082,608.26082 0 0 1 29.841,320.3544 c -20.4208,141.4776 -87.3802,292.2624 -115.7545,290.5703 -17.4874,-1.0714 -12.2413,-141.2515 11.3383,-309.8621"
     id="path18-7"
     inkscape:connector-curvature="0"
     style="fill:#12233f;stroke-width:56.41044235"
     inkscape:export-filename="G:\Users\suitedoalex\sites\ligue-1-logo-2.png"
     inkscape:export-xdpi="82.538063"
     inkscape:export-ydpi="82.538063" />
  <path
     d="m 5387.0418,8411.9998 c -84.6156,-17.262 -127.0927,-50.371 -138.7697,-96.3465 -26.0616,-101.4258 138.7697,-195.1236 342.8063,-226.2621 186.4928,-28.4873 346.8677,31.3639 363.7345,100.6929 13.0871,53.8721 -11.9591,97.251 -83.3182,144.3541 a 354.30044,354.30044 0 0 0 3.2153,-116.6567 2071.4366,2071.4366 0 0 0 -269.247,-43.3797 1061.6524,1061.6524 0 0 0 -254.5238,127.3743 301.13642,301.13642 0 0 0 36.1026,110.2261"
     id="path20-4"
     inkscape:connector-curvature="0"
     style="fill:#12233f;stroke-width:56.41044235"
     inkscape:export-filename="G:\Users\suitedoalex\sites\ligue-1-logo-2.png"
     inkscape:export-xdpi="82.538063"
     inkscape:export-ydpi="82.538063" />
  <path
     d="m 5773.9554,8323.2519 c 5.9795,36.0463 -53.8719,75.7027 -133.6927,88.4548 -79.9337,12.805 -149.0929,-6.093 -154.7902,-42.3084 -5.9796,-36.1024 54.0411,-75.8158 133.8055,-88.5078 79.5387,-12.7489 148.9799,6.2053 154.6774,42.3646"
     id="path22-9"
     inkscape:connector-curvature="0"
     style="fill:#12233f;stroke-width:56.41044235"
     inkscape:export-filename="G:\Users\suitedoalex\sites\ligue-1-logo-2.png"
     inkscape:export-xdpi="82.538063"
     inkscape:export-ydpi="82.538063" />
  <polygon
     points="9.729,41.56 7.024,41.56 7.024,36.871 8.245,36.871 8.245,40.496 9.729,40.496 "
     id="polygon32-7"
     transform="matrix(56.410442,0,0,56.410442,4261.6083,6596.4333)"
     style="fill:#12233f"
     inkscape:export-filename="G:\Users\suitedoalex\sites\ligue-1-logo-2.png"
     inkscape:export-xdpi="82.538063"
     inkscape:export-ydpi="82.538063" />
  <rect
     x="4921.8359"
     y="8676.3447"
     width="68.989967"
     height="264.51028"
     id="rect34-4"
     style="fill:#12233f;stroke-width:56.41044235"
     inkscape:export-filename="G:\Users\suitedoalex\sites\ligue-1-logo-2.png"
     inkscape:export-xdpi="82.538063"
     inkscape:export-ydpi="82.538063" />
  <path
     d="m 5242.1629,8666.7532 a 128.57068,128.57068 0 0 1 119.4209,66.3379 l -55.3387,30.3494 a 72.531418,72.531418 0 0 0 -64.8155,-36.5539 c -45.2412,0 -65.6618,36.7792 -65.6618,84.8975 0,44.8465 20.6462,80.7235 71.8105,80.7235 a 58.836091,58.836091 0 0 0 58.6668,-46.9339 h -60.5848 v -55.2818 h 132.339 v 14.4971 a 128.0957,128.0957 0 0 1 -135.2723,145.7085 135.47645,135.47645 0 0 1 -138.0363,-141.4215 137.76332,137.76332 0 0 1 137.4722,-142.3228"
     id="path36-9"
     inkscape:connector-curvature="0"
     style="fill:#12233f;stroke-width:56.41044235"
     inkscape:export-filename="G:\Users\suitedoalex\sites\ligue-1-logo-2.png"
     inkscape:export-xdpi="82.538063"
     inkscape:export-ydpi="82.538063" />
  <path
     d="m 5558.5917,8676.3651 v 162.2931 a 42.842038,42.842038 0 0 0 47.6104,47.6099 42.332652,42.332652 0 0 0 47.0462,-44.1128 v -165.7902 h 69.7233 v 169.2313 c 0,60.4157 -41.1796,102.8395 -118.2362,102.8395 -58.2156,0 -115.1902,-30.3486 -115.1902,-95.2768 v -176.7909 z"
     id="path38-0"
     inkscape:connector-curvature="0"
     style="fill:#12233f;stroke-width:56.41044235"
     inkscape:export-filename="G:\Users\suitedoalex\sites\ligue-1-logo-2.png"
     inkscape:export-xdpi="82.538063"
     inkscape:export-ydpi="82.538063" />
  <polygon
     points="28.175,41.56 28.175,36.871 30.891,36.871 30.891,37.936 29.399,37.936 29.399,38.696 30.805,38.696 30.805,39.735 29.399,39.735 29.399,40.518 30.917,40.518 30.917,41.56 "
     id="polygon40-61"
     transform="matrix(56.410442,0,0,56.410442,4261.6083,6596.4333)"
     style="fill:#12233f"
     inkscape:export-filename="G:\Users\suitedoalex\sites\ligue-1-logo-2.png"
     inkscape:export-xdpi="82.538063"
     inkscape:export-ydpi="82.538063" />
  <polygon
     points="35.589,37.876 35.589,36.871 37.489,36.871 37.489,41.56 36.262,41.56 36.262,37.876 "
     id="polygon42-0"
     transform="matrix(56.410442,0,0,56.410442,4261.6083,6596.4333)"
     style="fill:#12233f"
     inkscape:export-filename="G:\Users\suitedoalex\sites\ligue-1-logo-2.png"
     inkscape:export-xdpi="82.538063"
     inkscape:export-ydpi="82.538063" />
  <path
     d="m 1154.0995,1536.4298 c 31.6635,-101.0126 81.2016,-183.8797 147.9228,-191.2933 127.8293,-14.2726 276.999,200.3705 303.1184,452.565 24.1111,233.2109 -30.4157,488.5238 -158.2449,502.8663 -78.0144,8.6605 -150.2778,-23.2109 -206.0515,-144.2501 a 409.28688,409.28688 0 0 0 195.6585,-10.8774 1601.57,1601.57 0 0 0 38.5916,-357.6462 1048.1586,1048.1586 0 0 0 -167.1832,-308.5237 668.90572,668.90572 0 0 0 -153.8117,57.1594"
     id="path4-4-9"
     inkscape:connector-curvature="0"
     style="fill:#12233f;stroke-width:69.28434753" />
  <path
     d="m 1256.5774,2026.5636 c -50.4383,6.1694 -100.6697,-68.8694 -112.5175,-167.3221 -11.9867,-98.4527 19.3302,-183.0494 69.5618,-189.0772 50.3003,-6.0277 100.7397,68.7994 112.5174,167.2521 11.7788,98.5227 -19.3302,183.1193 -69.5617,189.1472"
     id="path6-9-1"
     inkscape:connector-curvature="0"
     style="fill:#12233f;stroke-width:69.28434753" />
  <path
     d="m 2404.7721,1542.7564 a 164.92099,164.92099 0 1 1 -182.9795,-147.918 166.33301,166.33301 0 0 1 182.9795,147.918"
     id="path8-3-9"
     inkscape:connector-curvature="0"
     style="fill:#12233f;stroke-width:69.28434753" />
  <path
     d="m 2705.7644,1509.6027 a 496.20963,496.20963 0 0 0 -536.1915,-451.7337 496.13066,496.13066 0 0 0 -419.9321,561.4107 504.78566,504.78566 0 0 0 427.2758,451.2491 c 0,0 -4.0875,-48.2913 -9.9765,-96.3056 -5.4042,-47.7367 -11.9865,-94.8498 -11.9865,-94.8498 l -57.2285,6.0277 a 1045.8625,1045.8625 0 0 1 -117.3683,-136.0052 901.92284,901.92284 0 0 1 -81.6852,-147.2984 c 0,0 24.3179,-86.3281 56.3272,-166.0051 32.9104,-80.855 73.3035,-154.9898 73.3035,-154.9898 a 1536.3873,1536.3873 0 0 1 156.4434,-27.3673 c 85.0124,-9.6996 172.7954,-10.3919 172.7954,-10.3919 a 1096.3736,1096.3736 0 0 1 108.7767,128.6605 1301.8529,1301.8529 0 0 1 90.6935,154.7809 755.58529,755.58529 0 0 1 -43.1647,158.8004 1055.6398,1055.6398 0 0 1 -86.8827,162.1256 l -51.5473,8.4527 c 0,0 6.9979,45.4506 10.3929,92.0782 3.8107,49.0496 6.0968,97.5525 6.0968,97.5525 a 504.74339,504.74339 0 0 0 313.8581,-536.1915"
     id="path10-7-9"
     inkscape:connector-curvature="0"
     style="fill:#12233f;stroke-width:69.28434753" />
  <path
     d="M 2609.5498,1090.814 C 2487.9552,981.41376 2387.5622,895.70896 2388.879,890.37846 a 348.28341,348.28341 0 0 1 77.9444,34.9197 874.34559,874.34559 0 0 1 176.1904,121.73254 799.5185,799.5185 0 0 1 189.7697,235.497 2333.9818,2333.9818 0 0 1 -223.2337,-191.7099"
     id="path12-0-3"
     inkscape:connector-curvature="0"
     style="fill:#12233f;stroke-width:69.28434753" />
  <path
     d="m 1737.8409,871.73376 a 953.84176,953.84176 0 0 0 -172.033,81.4785 952.5212,952.5212 0 0 0 324.3899,-120.4167 875.92596,875.92596 0 0 0 -152.3569,38.9382"
     id="path14-6-6"
     inkscape:connector-curvature="0"
     style="fill:#12233f;stroke-width:69.28434753" />
  <path
     d="m 2182.8122,842.83816 a 357.48021,357.48021 0 0 0 -194.6195,-21.2007 178.68433,178.68433 0 0 1 59.5845,20.0235 l -236.3982,106.2821 -282.7492,74.06484 a 61.930505,61.930505 0 0 1 -35.4741,-19.5381 c -73.3025,55.9815 -120.0001,106.282 -118.6842,118.3375 2.6336,24.1111 195.4517,-20.5083 418.6163,-97.3446 223.4424,-76.70154 397.7615,-157.62164 389.7244,-180.62854"
     id="path16-0-5"
     inkscape:connector-curvature="0"
     style="fill:#12233f;stroke-width:69.28434753" />
  <path
     d="m 2818.449,1837.042 c 29.1677,-207.2947 71.1544,-376.7686 91.5944,-369.7707 a 747.07717,747.07717 0 0 1 36.6513,393.4661 c -25.0815,173.7645 -107.3218,358.962 -142.1725,356.8838 -21.4778,-1.3168 -15.0346,-173.4886 13.9268,-380.5792"
     id="path18-7-0"
     inkscape:connector-curvature="0"
     style="fill:#12233f;stroke-width:69.28434753" />
  <path
     d="m 1888.2509,2617.7127 c -103.927,-21.2006 -156.0979,-61.8666 -170.4394,-118.3337 -32.0092,-124.573 170.4394,-239.6544 421.0403,-277.9001 229.0545,-34.9878 426.0299,38.5226 446.7459,123.6727 16.0741,66.1668 -14.6883,119.4466 -102.3333,177.2985 a 435.15834,435.15834 0 0 0 3.9496,-143.2799 2544.1767,2544.1767 0 0 0 -330.6946,-53.2798 1303.9411,1303.9411 0 0 0 -312.6102,156.4444 369.86131,369.86131 0 0 0 44.3417,135.3817"
     id="path20-4-9"
     inkscape:connector-curvature="0"
     style="fill:#12233f;stroke-width:69.28434753" />
  <path
     d="m 2363.4654,2508.7119 c 7.3437,44.2726 -66.1667,92.9795 -164.2037,108.6407 -98.1759,15.7275 -183.1194,-7.4825 -190.1163,-51.963 -7.3446,-44.3426 66.3735,-93.1183 164.3416,-108.7068 97.6914,-15.6584 182.9805,7.6204 189.9784,52.0319"
     id="path22-9-4"
     inkscape:connector-curvature="0"
     style="fill:#12233f;stroke-width:69.28434753" />
  <polygon
     points="7.024,36.871 8.245,36.871 8.245,40.496 9.729,40.496 9.729,41.56 7.024,41.56 "
     id="polygon32-7-1"
     transform="matrix(69.284347,0,0,69.284347,505.97293,387.80039)"
     style="fill:#12233f" />
  <rect
     x="1316.8754"
     y="2942.3872"
     width="84.734749"
     height="324.8764"
     id="rect34-4-0"
     style="fill:#12233f;stroke-width:69.28434753" />
  <path
     d="m 1710.3079,2930.6054 a 157.91288,157.91288 0 0 1 146.6749,81.4785 l -67.9681,37.2747 a 89.084427,89.084427 0 0 0 -79.608,-44.8961 c -55.5659,0 -80.6462,45.1729 -80.6462,104.2727 0,55.0813 25.358,99.1461 88.1986,99.1461 a 72.263574,72.263574 0 0 0 72.0556,-57.6451 h -74.4116 v -67.8981 h 162.5412 v 17.8064 a 157.3295,157.3295 0 0 1 -166.144,178.9611 166.39468,166.39468 0 0 1 -169.5382,-173.6956 169.20345,169.20345 0 0 1 168.8458,-174.8046"
     id="path36-9-3"
     inkscape:connector-curvature="0"
     style="fill:#12233f;stroke-width:69.28434753" />
  <path
     d="m 2098.951,2942.4111 v 199.3312 a 52.619382,52.619382 0 0 0 58.4763,58.4764 51.993745,51.993745 0 0 0 57.7829,-54.181 v -203.6266 h 85.6358 v 207.8529 c 0,74.2036 -50.5781,126.3103 -145.2201,126.3103 -71.5011,0 -141.4785,-37.2757 -141.4785,-117.0216 v -217.1368 z"
     id="path38-0-6"
     inkscape:connector-curvature="0"
     style="fill:#12233f;stroke-width:69.28434753" />
  <polygon
     points="29.399,39.735 29.399,40.518 30.917,40.518 30.917,41.56 28.175,41.56 28.175,36.871 30.891,36.871 30.891,37.936 29.399,37.936 29.399,38.696 30.805,38.696 30.805,39.735 "
     id="polygon40-61-0"
     transform="matrix(69.284347,0,0,69.284347,505.97293,387.80039)"
     style="fill:#12233f" />
  <polygon
     points="37.489,36.871 37.489,41.56 36.262,41.56 36.262,37.876 35.589,37.876 35.589,36.871 "
     id="polygon42-0-2"
     transform="matrix(69.284347,0,0,69.284347,505.97293,387.80039)"
     style="fill:#12233f" />
</svg>
