<?xml version="1.0" encoding="UTF-8" standalone="no"?>
<svg
   xmlns:dc="http://purl.org/dc/elements/1.1/"
   xmlns:cc="http://creativecommons.org/ns#"
   xmlns:rdf="http://www.w3.org/1999/02/22-rdf-syntax-ns#"
   xmlns:svg="http://www.w3.org/2000/svg"
   xmlns="http://www.w3.org/2000/svg"
   xmlns:xlink="http://www.w3.org/1999/xlink"
   xmlns:sodipodi="http://sodipodi.sourceforge.net/DTD/sodipodi-0.dtd"
   xmlns:inkscape="http://www.inkscape.org/namespaces/inkscape"
   inkscape:version="1.0.1 (3bc2e813f5, 2020-09-07)"
   sodipodi:docname="2019.svg"
   viewBox="0 0 992.12598 992.12598"
   id="svg98"
   height="992.12598"
   width="992.12598"
   version="1.1">
  <metadata
     id="metadata104">
    <rdf:RDF>
      <cc:Work
         rdf:about="">
        <dc:format>image/svg+xml</dc:format>
        <dc:type
           rdf:resource="http://purl.org/dc/dcmitype/StillImage" />
        <dc:title></dc:title>
      </cc:Work>
    </rdf:RDF>
  </metadata>
  <defs
     id="defs102" />
  <sodipodi:namedview
     pagecolor="#ffffff"
     bordercolor="#666666"
     borderopacity="1"
     objecttolerance="10"
     gridtolerance="10"
     guidetolerance="10"
     inkscape:pageopacity="0"
     inkscape:pageshadow="2"
     inkscape:window-width="2560"
     inkscape:window-height="1384"
     id="namedview100"
     showgrid="false"
     inkscape:zoom="0.84565874"
     inkscape:cx="280.2549"
     inkscape:cy="496.06299"
     inkscape:window-x="0"
     inkscape:window-y="0"
     inkscape:window-maximized="1"
     inkscape:current-layer="Layer1000"
     inkscape:document-rotation="0"
     guidecolor="#0000ff"
     guideopacity="0" />
  <path
     d="m 267.9119,72.58591 -0.25867,843.06789 457.68573,-0.21248 0.30487,-840.074664 z"
     style="fill:none;fill-rule:evenodd;stroke-width:0.722293"
     id="path2"
     sodipodi:nodetypes="ccccc" />
  <g
     id="Layer1000">
    <path
       d="m 756.9709,742.5704 v 94.531 c 0,18.4212 -4.3679,35.8682 -12.1198,51.3571 -18.9788,37.9224 -58.2411,64.106 -103.3425,64.106 H 350.6177 c -21.4465,0 -41.573,-5.9206 -58.8257,-16.2088 -33.8481,-20.1842 -56.6366,-57.1785 -56.6366,-99.2543 V 155.0249 c 0,-63.5223 51.94,-115.4631 115.4623,-115.4631 h 290.8909 c 63.5226,0 115.4623,51.9408 115.4623,115.4631 z"
       style="fill:none;fill-rule:evenodd"
       id="path4" />
    <path
       d="m 350.6177,48.5844 h 290.8909 c 58.5421,0 106.4396,47.8975 106.4396,106.4405 V 751.5931 H 244.1781 V 155.0249 c 0,-58.543 47.8978,-106.4405 106.4396,-106.4405 z"
       style="opacity:1;fill:none;fill-opacity:1;fill-rule:evenodd;stroke:none;stroke-opacity:0"
       id="path6" />
    <path
       d="m 727.89612,751.593 v 85.5083 c 0,58.5431 -43.89327,106.4405 -97.54066,106.4405 H 363.78458 c -53.64739,0 -97.54066,-47.8974 -97.54066,-106.4405 V 751.593 Z"
       style="fill:#024494;fill-rule:evenodd;stroke-width:0.957285"
       id="path8" />
    <g
       id="Layer1001">
      <path
         d="M 535.3809,145.9103 685.6799,496.9242 497.1784,616.005 307.0088,496.9242 456.8316,145.9103 Z"
         style="fill:#074892;fill-rule:evenodd"
         id="path10" />
      <g
         id="Layer1002">
        <path
           d="M 307.0088,496.9242 456.8316,145.9103 h 78.5493 l 150.299,351.0139 h -114.851 l -17.991,-50.3653 h -75.9516 l 20.2921,-59.3683 h 33.9056 l -33.9056,-95.276 -74.9479,205.0096 z"
           style="fill:#008fd7;fill-rule:evenodd"
           id="path12" />
        <defs
           id="defs20">
          <linearGradient
             id="grad1">
            <stop
               offset="0%"
               stop-color="#1069bc"
               stop-opacity="1.0000"
               id="stop14" />
            <stop
               offset="100%"
               stop-color="#147ad1"
               stop-opacity="1.0000"
               id="stop16" />
          </linearGradient>
          <linearGradient
             xlink:href="#grad1"
             id="grad2"
             x1="0"
             y1="0"
             x2="0"
             y2="1"
             gradientTransform="rotate(144,0.5,0.5)"
             gradientUnits="objectBoundingBox" />
        </defs>
        <path
           d="m 497.1784,291.9146 33.9056,95.276 h -33.9056 z"
           style="fill:url(#grad2)"
           id="path22" />
        <defs
           id="defs30">
          <linearGradient
             id="grad3">
            <stop
               offset="0%"
               stop-color="#03377e"
               stop-opacity="1.0000"
               id="stop24" />
            <stop
               offset="100%"
               stop-color="#1376cc"
               stop-opacity="1.0000"
               id="stop26" />
          </linearGradient>
          <linearGradient
             xlink:href="#grad3"
             id="grad4"
             x1="0"
             y1="0"
             x2="0"
             y2="1"
             gradientTransform="rotate(-44,0.5,0.5)"
             gradientUnits="objectBoundingBox" />
        </defs>
        <path
           d="M 497.1784,291.9146 V 496.9242 H 422.2305 Z"
           style="fill:url(#grad4)"
           id="path32" />
        <defs
           id="defs40">
          <linearGradient
             id="grad5">
            <stop
               offset="0%"
               stop-color="#054088"
               stop-opacity="1.0000"
               id="stop34" />
            <stop
               offset="100%"
               stop-color="#0d5eae"
               stop-opacity="1.0000"
               id="stop36" />
          </linearGradient>
          <linearGradient
             xlink:href="#grad5"
             id="grad6"
             x1="0"
             y1="0"
             x2="0"
             y2="1"
             gradientTransform="rotate(132,0.5,0.5)"
             gradientUnits="objectBoundingBox" />
        </defs>
        <path
           d="m 552.8379,446.5589 17.991,50.3653 h -73.6505 v -50.3653 z"
           style="fill:url(#grad6)"
           id="path42" />
        <defs
           id="defs50">
          <linearGradient
             id="grad7">
            <stop
               offset="0%"
               stop-color="#02367c"
               stop-opacity="1.0000"
               id="stop44" />
            <stop
               offset="100%"
               stop-color="#1377cd"
               stop-opacity="1.0000"
               id="stop46" />
          </linearGradient>
          <linearGradient
             xlink:href="#grad7"
             id="grad8"
             x1="0"
             y1="0"
             x2="0"
             y2="1"
             gradientTransform="rotate(-136,0.5,0.5)"
             gradientUnits="objectBoundingBox" />
        </defs>
        <path
           d="M 497.1784,616.005 V 496.9242 h 73.6505 z"
           style="fill:url(#grad8)"
           id="path52" />
        <defs
           id="defs60">
          <linearGradient
             id="grad9">
            <stop
               offset="0%"
               stop-color="#02357a"
               stop-opacity="1.0000"
               id="stop54" />
            <stop
               offset="100%"
               stop-color="#1273c9"
               stop-opacity="1.0000"
               id="stop56" />
          </linearGradient>
          <linearGradient
             xlink:href="#grad9"
             id="grad10"
             x1="0"
             y1="0"
             x2="0"
             y2="1"
             gradientTransform="rotate(-135,0.5,0.5)"
             gradientUnits="objectBoundingBox" />
        </defs>
        <path
           d="M 685.6799,496.9242 497.1784,616.005 570.8289,496.9242 Z"
           style="fill:url(#grad10)"
           id="path62" />
        <defs
           id="defs70">
          <linearGradient
             id="grad11">
            <stop
               offset="0%"
               stop-color="#1378ce"
               stop-opacity="1.0000"
               id="stop64" />
            <stop
               offset="100%"
               stop-color="#0b58a7"
               stop-opacity="1.0000"
               id="stop66" />
          </linearGradient>
          <linearGradient
             xlink:href="#grad11"
             id="grad12"
             x1="0"
             y1="0"
             x2="0"
             y2="1"
             gradientTransform="rotate(-126,0.5,0.5)"
             gradientUnits="objectBoundingBox" />
        </defs>
        <path
           d="m 422.2305,496.9242 h 74.9479 V 616.005 Z"
           style="fill:url(#grad12)"
           id="path72" />
        <defs
           id="defs80">
          <linearGradient
             id="grad13">
            <stop
               offset="0%"
               stop-color="#1375ca"
               stop-opacity="1.0000"
               id="stop74" />
            <stop
               offset="100%"
               stop-color="#1f4a87"
               stop-opacity="1.0000"
               id="stop76" />
          </linearGradient>
          <linearGradient
             xlink:href="#grad13"
             id="grad14"
             x1="0"
             y1="0"
             x2="0"
             y2="1"
             gradientTransform="rotate(-44,0.5,0.5)"
             gradientUnits="objectBoundingBox" />
        </defs>
        <path
           d="M 307.0088,496.9242 H 422.2305 L 497.1784,616.005 Z"
           style="fill:url(#grad14)"
           id="path82" />
      </g>
    </g>
    <g
       id="Layer1003">
      <path
         d="m 525.7713,791.1818 v 0 c 2.0301,0 2.4318,0.2693 2.4318,7.4117 v 6.612 c 0,6.8692 -0.5429,7.677 -2.4318,7.677 h -22.9021 v 77.2161 c 0,1.7525 -2.1587,2.15 -9.8395,2.15 h -4.0396 c -7.8217,0 -9.1598,-0.3975 -9.1598,-2.15 v -77.2161 h -22.9145 c -1.8893,0 -2.428,-0.5384 -2.428,-7.677 v -6.612 c 0,-7.4117 0.4102,-7.4117 2.428,-7.4117 z"
         style="fill:#00be1b;fill-rule:evenodd"
         id="path86" />
      <path
         d="m 566.8732,793.3445 v 0 c 0,-1.4831 -2.1501,-2.1627 -9.5577,-2.1627 h -4.3211 c -7.8095,0 -9.1598,0.6796 -9.1598,2.1627 v 96.7541 c 0,1.7525 1.3503,2.15 9.1598,2.15 h 4.3211 c 7.4076,0 9.5577,-0.3975 9.5577,-2.15 z"
         style="fill:#ffffff;fill-rule:evenodd"
         id="path88" />
      <path
         d="M 678.7205,791.1818 H 671.98 c -8.6176,0 -9.1601,0.9406 -9.8273,2.4321 l -13.3444,32.0702 c -4.4493,10.6392 -9.0273,22.0902 -10.7798,28.0229 -1.6199,-5.9327 -4.578,-13.8828 -10.7801,-28.5613 l -13.3403,-31.5318 c -0.8119,-1.8934 -4.1802,-2.4321 -11.4511,-2.4321 h -7.5526 c -7.4076,0 -8.8866,0.6796 -8.8866,2.1627 v 96.7541 c 0,1.7525 1.479,2.15 9.1601,2.15 h 4.1802 c 7.5402,0 9.6988,-0.3975 9.6988,-2.15 v -57.4127 h 0.5426 c 0,0 0.6671,2.7012 1.7483,5.1205 l 15.3619,35.9814 c 0.6672,1.6199 1.4791,2.2912 8.6176,2.2912 h 4.5943 c 7.2667,0 7.8096,-0.5428 8.4764,-2.2912 l 14.0241,-34.6308 c 1.3381,-3.2316 2.2909,-6.4711 2.2909,-6.4711 h 0.5387 v 57.4003 c 0,1.7649 1.479,2.1624 9.4295,2.1624 h 4.0393 c 7.4117,0 9.5742,-0.3975 9.5742,-2.1624 v -96.7417 c 0,-1.4831 -2.1625,-2.1627 -9.5742,-2.1627 z"
         style="fill:#ff1f11;fill-rule:evenodd"
         id="path90" />
      <path
         d="m 354.9122,870.6269 h -42.5729 c -1.6075,0 -3.0657,0.6462 -4.1098,1.7027 -1.044,1.0606 -1.7028,2.5024 -1.7028,4.1015 v 9.9928 c 0,1.5991 0.6464,3.0409 1.6904,4.0974 1.0565,1.0563 2.5147,1.7152 4.1222,1.7152 h 42.5729 z m 70.8857,1.7151 v 0 c -1.0606,-1.0564 -2.5147,-1.7151 -4.1346,-1.7151 h -42.5604 v 21.6096 h 42.5604 c 1.6199,0 3.074,-0.6589 4.1346,-1.7277 1.0317,-1.044 1.678,-2.4858 1.678,-4.0849 v -9.9928 c 0,-1.5867 -0.634,-3.0326 -1.678,-4.0891 z m 0,-39.7059 v 0 c -1.0606,-1.0689 -2.5147,-1.7235 -4.1346,-1.7235 h -42.5604 v 21.6055 h 42.5604 c 1.6199,0 3.074,-0.6546 4.1346,-1.7111 1.0317,-1.0606 1.678,-2.5023 1.678,-4.1015 v -9.9803 c 0,-1.5993 -0.634,-3.0409 -1.678,-4.0891 z m -70.8857,-1.7235 v 0 h -42.5729 c -1.6075,0 -3.0657,0.6546 -4.1098,1.7027 -1.044,1.0565 -1.7028,2.5106 -1.7028,4.1099 v 9.9803 c 0,1.5992 0.6464,3.0534 1.6904,4.1015 1.0565,1.0565 2.5147,1.7111 4.1222,1.7111 h 42.5729 z m 66.7511,-18.1005 v 0 h -109.324 c -1.6075,0 -3.0657,-0.6546 -4.1222,-1.711 -1.044,-1.0606 -1.6904,-2.5024 -1.6904,-4.1015 v -9.9928 c 0,-1.595 0.6588,-3.0532 1.7028,-4.0973 1.0441,-1.0564 2.5023,-1.7027 4.1098,-1.7027 h 109.324 c 1.6199,0 3.074,0.6546 4.1346,1.7152 1.044,1.0565 1.678,2.498 1.678,4.0848 v 9.9928 c 0,1.5991 -0.6463,3.0409 -1.678,4.0891 -1.0606,1.0688 -2.5147,1.7234 -4.1346,1.7234 z"
         style="fill:#e40d2c;fill-rule:evenodd"
         id="path92" />
    </g>
    <path
       d="m 664.4832,641.9557 c 0.6018,10e-4 1.1673,0.3781 1.3789,0.9751 l 26.3179,74.2916 h -17.2103 l -4.5589,-14.3298 h -25.7639 l -4.5589,14.3298 h -17.2101 l 26.3176,-74.2916 c 0.2063,-0.5824 0.7485,-0.9544 1.3328,-0.9741 z m -354.2049,54.0951 c 3.0173,2.5864 6.6875,4.7887 10.6312,6.3286 7.078,2.7643 16.5875,3.7365 20.9108,-2.1825 1.5718,-2.1634 2.4286,-5.0198 1.3907,-7.5982 -1.7257,-4.3361 -8.7116,-5.5139 -13.2198,-5.8451 -10.8722,-0.8001 -20.177,-3.0958 -24.7751,-15.4432 -1.6464,-4.2184 -1.7918,-9.1286 -0.6254,-13.6364 1.1752,-4.5404 3.7202,-8.8098 7.4461,-11.7153 1.3927,-1.0863 4.2845,-2.0541 5.9203,-2.6922 6.2729,-2.4481 12.9579,-3.0592 19.6457,-2.0548 6.6566,1 13.3286,3.617 19.5778,7.619 l -7.7324,12.0465 c -4.5293,-2.9004 -9.2925,-4.7868 -13.9747,-5.4897 -5.4434,-0.8173 -12.335,-1.6298 -14.724,5.846 -0.5333,1.6687 -0.1923,3.6734 0.5297,4.9845 2.1883,3.9723 7.2173,5.079 11.0517,5.3121 2.6648,0.1619 5.322,0.6958 8.2845,1.4315 9.1474,2.2721 15.3329,5.9094 18.247,13.7343 1.4344,3.5631 1.7949,7.3894 1.1969,11.1323 -0.577,3.6134 -2.0369,7.1223 -4.2688,10.1942 -4.6006,6.3315 -13.5676,10.9448 -23.7542,10.9216 -5.5482,-0.0125 -11.1409,-1.1995 -16.3379,-3.229 -5.4179,-2.1156 -10.5011,-5.1764 -14.7215,-8.7939 z m 62.6072,-53.9883 h 47.8876 c 0.6876,0 1.2492,0.5626 1.2492,1.2508 v 11.3685 c 0,0.6882 -0.5616,1.2508 -1.2492,1.2508 h -33.1282 v 16.7749 h 27.5706 c 0.6876,0 1.2493,0.5626 1.2493,1.2508 v 11.3685 c 0,0.6882 -0.5617,1.2508 -1.2493,1.2508 h -27.5706 v 16.7747 h 33.1282 c 0.6876,0 1.2492,0.5626 1.2492,1.2508 v 11.3685 c 0,0.6881 -0.5616,1.2508 -1.2492,1.2508 h -47.8876 c -0.8049,0 -1.4631,-0.657 -1.4631,-1.4612 v -72.2375 c 0,-0.8042 0.6582,-1.4612 1.4631,-1.4612 z m 106.7698,44.1447 14.0859,29.554 c 0.2327,0.4883 0.1683,1.0442 -0.1198,1.4612 h -17.155 l -13.6163,-28.569 h -10.7986 v 27.1078 c 0,0.8042 -0.6582,1.4612 -1.4631,1.4612 h -13.2963 c -0.8049,0 -1.4631,-0.657 -1.4631,-1.4612 v -72.2375 c 0,-1.4886 1.4353,-1.5651 2.4917,-1.5648 l 31.7387,0.0153 c 12.4861,0.006 22.5544,10.7616 22.5544,23.3388 0,8.8551 -5.0552,16.9337 -12.9585,20.8942 z m -27.6038,-30.5417 v 19.2813 l 14.9386,0.008 c 5.1521,-0.1967 9.3705,-4.4607 9.3705,-9.6421 0,-5.147 -4.1719,-9.4649 -9.3144,-9.6402 z m 54.9076,-13.603 h 13.2964 c 0.8048,0 1.4631,0.657 1.4631,1.4612 v 72.2375 c 0,0.8042 -0.6583,1.4612 -1.4631,1.4612 h -13.2964 c -0.8048,0 -1.4631,-0.657 -1.4631,-1.4612 v -72.2375 c 0,-0.8042 0.6583,-1.4612 1.4631,-1.4612 z m 32.4639,0 h 47.8876 c 0.6876,0 1.2492,0.5626 1.2492,1.2508 v 11.3685 c 0,0.6882 -0.5616,1.2508 -1.2492,1.2508 h -33.1281 v 16.7749 h 27.5706 c 0.6876,0 1.2492,0.5626 1.2492,1.2508 v 11.3685 c 0,0.6882 -0.5616,1.2508 -1.2492,1.2508 h -27.5706 v 16.7747 h 33.1281 c 0.6876,0 1.2492,0.5626 1.2492,1.2508 v 11.3685 c 0,0.6881 -0.5616,1.2508 -1.2492,1.2508 H 539.423 c -0.8048,0 -1.4631,-0.657 -1.4631,-1.4612 v -72.2375 c 0,-0.8042 0.6583,-1.4612 1.4631,-1.4612 z m 126.5606,46.9141 -8.4548,-26.5748 -8.4547,26.5748 z"
       style="fill:#002d71;fill-rule:evenodd"
       id="path95" />
  </g>
</svg>
